<svg width="531" height="982" viewBox="0 0 531 982" fill="none" xmlns="http://www.w3.org/2000/svg">
<rect x="-19" y="-15" width="550" height="1020" fill="url(#paint0_linear_96_6717)"/>
<mask id="mask0_96_6717" style="mask-type:alpha" maskUnits="userSpaceOnUse" x="-19" y="-15" width="550" height="1020">
<rect x="-19" y="-15" width="550" height="1020" fill="url(#paint1_linear_96_6717)"/>
</mask>
<g mask="url(#mask0_96_6717)">
<path d="M670.743 367.536C670.743 387.482 657.95 395.942 639.791 386.932C621.633 377.921 605.813 366.297 589.03 355.98C562.206 339.197 535.312 322.621 508.831 305.357C485.514 290.225 485.239 279.77 507.249 263.607C517.566 256.11 511.995 247.168 508.418 240.496C488.609 202.666 465.361 167.45 429.457 142.345C381.31 108.711 328.21 90.4144 269.746 97.7741C211.343 104.04 157.381 131.879 118.426 175.841C68.766 231.761 41.0472 296.897 48.4756 372.144C56.1103 450.074 94.7654 509.707 163.96 550.082C207.086 575.119 253.376 583.441 301.523 583.991C325.459 583.991 329.655 588.669 329.655 612.88C329.655 639.361 329.104 665.841 328.623 692.391C328.623 713.025 321.263 723.274 301.11 722.311C267.279 720.758 233.591 716.921 200.277 710.825C177.288 705.759 154.798 698.645 133.077 689.571C84.1731 670.931 43.661 639.773 7.757 602.287C-30.3875 562.02 -59.0773 513.758 -76.2255 461.01C-92.8234 411.283 -99.0958 358.693 -94.6589 306.458C-89.501 243.6 -68.5642 183.06 -33.7874 130.445C-5.27625 86.6633 31.9612 49.2345 75.5965 20.4993C119.232 -8.23582 168.326 -27.6591 219.81 -36.5561C267.635 -45.3809 316.738 -44.5861 364.252 -34.2178C410.011 -24.5511 453.548 -6.3755 492.598 19.3633C532.306 44.128 566.679 76.56 593.707 114.763C607.023 134.843 619.172 155.672 630.093 177.148C634.701 185.884 638.347 188.841 648.595 186.228C666.547 181.619 673.357 187.603 673.632 206.862C675.214 234.512 671.224 341.536 670.743 367.536Z" fill="url(#paint2_linear_96_6717)"/>
<path d="M-117.012 662.332C-115.705 641.697 -102.155 634.819 -85.0975 645.824C-39.9309 674.254 5.28133 702.661 50.5396 731.045C65.1213 740.193 67.3224 755.6 53.1534 764.61C41.3917 772.107 44.6933 779.742 48.5451 787.583C66.3549 826.914 93.6525 861.208 127.988 887.385C170.151 918.268 217.404 936.496 269.265 934.363C359.231 930.718 426.637 887.729 472.583 810.557C502.022 760.896 517.842 708.072 509.107 650.295C498.652 581.514 465.705 526.488 406.828 487.833C363.739 459.853 313.036 445.915 261.699 447.939C234.187 448.421 228.959 443.263 229.303 416.507C229.647 389.751 229.991 363.476 230.472 336.995C230.173 333.212 230.697 329.41 232.007 325.85C233.318 322.289 235.384 319.053 238.063 316.367C240.743 313.681 243.973 311.607 247.531 310.288C251.088 308.969 254.89 308.436 258.673 308.726C316.901 307.395 374.703 318.951 427.944 342.566C484.776 368.12 534.591 407.032 573.142 455.987C597.789 487.165 617.187 522.152 630.575 559.573C652.331 618.503 659.114 681.914 650.315 744.113C641.954 803.4 619.888 859.921 585.867 909.189C560.805 945.996 529.246 977.927 492.737 1003.42C466.37 1021.02 438.303 1035.93 408.96 1047.92C343.48 1076.05 274.149 1078.19 205.436 1067.39C170.632 1061.88 137.136 1046.34 104.052 1033C56.9366 1013.2 15.7174 981.603 -15.6282 941.241C-37.5696 913.729 -54.9025 882.708 -73.1984 852.651C-78.0819 844.603 -80.0763 839.651 -91.0126 844.741C-111.234 853.889 -123.615 844.74 -123.822 822.937C-123.89 796.593 -119.007 689.844 -117.012 662.332Z" fill="url(#paint3_linear_96_6717)"/>
</g>
<defs>
<linearGradient id="paint0_linear_96_6717" x1="-12.7303" y1="4.64142" x2="693.704" y2="137.071" gradientUnits="userSpaceOnUse">
<stop stop-color="#002F46"/>
<stop offset="1" stop-color="#00ABFF"/>
</linearGradient>
<linearGradient id="paint1_linear_96_6717" x1="-12.7303" y1="4.64142" x2="693.704" y2="137.071" gradientUnits="userSpaceOnUse">
<stop stop-color="#002F46"/>
<stop offset="1" stop-color="#00ABFF"/>
</linearGradient>
<linearGradient id="paint2_linear_96_6717" x1="288.98" y1="-42.6323" x2="288.98" y2="722.373" gradientUnits="userSpaceOnUse">
<stop stop-color="#00ABFF"/>
<stop offset="1" stop-color="#00ABFF" stop-opacity="0"/>
</linearGradient>
<linearGradient id="paint3_linear_96_6717" x1="265.117" y1="308.622" x2="265.117" y2="1073.41" gradientUnits="userSpaceOnUse">
<stop stop-color="#00ABFF"/>
<stop offset="1" stop-color="#00ABFF" stop-opacity="0"/>
</linearGradient>
</defs>
</svg>
