<svg width="1390" height="703" viewBox="0 0 1390 703" fill="none" xmlns="http://www.w3.org/2000/svg">
<g filter="url(#filter0_f_577_11049)">
<circle cx="1199" cy="191" r="119" fill="url(#paint0_linear_577_11049)" fill-opacity="0.37"/>
</g>
<g filter="url(#filter1_f_577_11049)">
<circle cx="133" cy="512" r="119" fill="url(#paint1_linear_577_11049)" fill-opacity="0.37"/>
</g>
<g filter="url(#filter2_f_577_11049)">
<circle cx="177" cy="444" r="87" fill="url(#paint2_linear_577_11049)"/>
</g>
<g clip-path="url(#clip0_577_11049)">
<path fill-rule="evenodd" clip-rule="evenodd" d="M812.394 240.114C811.298 239.983 810.354 239.875 809.855 239.82C806.815 239.497 799.364 237.778 793.783 238.346C789.524 238.779 786.338 240.54 786.102 244.583C785.888 248.257 788.682 251.409 793.115 253.84C802.654 259.07 819.731 261.215 825.058 260.53C825.639 260.455 826.049 259.925 825.974 259.344C825.9 258.765 825.37 258.355 824.788 258.43C819.677 259.086 803.291 257.003 794.133 251.982C790.553 250.019 788.045 247.673 788.218 244.705C788.388 241.775 790.909 240.768 793.996 240.454C799.428 239.9 806.671 241.611 809.631 241.928C811.486 242.125 818.54 243.078 819.164 243.014C819.946 242.935 820.102 242.338 820.138 242.138C820.166 241.983 820.258 241.202 819.345 240.896C806.329 236.515 789.386 220.784 780.382 202.351C771.456 184.081 770.355 163.089 789.057 147.916C789.51 147.547 789.579 146.879 789.213 146.425C788.843 145.971 788.175 145.902 787.722 146.271C768.127 162.17 769.126 184.14 778.477 203.28C786.357 219.412 800.189 233.485 812.394 240.114Z" fill="black"/>
<path fill-rule="evenodd" clip-rule="evenodd" d="M787.525 148.013C787.016 150.459 786.43 152.878 786.111 155.365C785.258 161.99 785.775 169.054 788.133 175.329C788.34 175.878 788.951 176.154 789.498 175.949C790.047 175.741 790.322 175.13 790.118 174.584C787.876 168.63 787.404 161.921 788.213 155.636C788.581 152.79 789.301 150.03 789.849 147.219C789.874 147.078 790.15 145.864 790.138 145.591C790.113 144.957 789.697 144.71 789.49 144.621C789.318 144.544 789.094 144.493 788.814 144.537C788.584 144.574 788.165 144.747 787.654 145.097C786.012 146.214 782.557 149.368 781.935 149.826C774.805 155.074 767.292 158.759 759.479 162.838C758.961 163.11 758.759 163.751 759.029 164.269C759.299 164.787 759.939 164.987 760.457 164.717C768.37 160.588 775.973 156.845 783.188 151.532C783.617 151.219 785.895 149.353 787.525 148.013Z" fill="black"/>
</g>
<g clip-path="url(#clip1_577_11049)">
<path d="M1081.35 352.502C1093.41 345.193 1102.18 332.295 1104.21 318.41C1104.37 317.342 1104.09 316.259 1103.45 315.399C1102.8 314.539 1101.84 313.971 1100.77 313.822C1099.7 313.674 1098.61 313.955 1097.74 314.605C1096.87 315.255 1096.29 316.22 1096.14 317.287C1094.25 330.175 1085.36 342.029 1073.46 347.494C1072.97 347.717 1072.53 348.033 1072.16 348.426C1071.79 348.819 1071.5 349.28 1071.32 349.782C1071.13 350.285 1071.04 350.82 1071.06 351.355C1071.07 351.89 1071.2 352.416 1071.42 352.901C1071.64 353.388 1071.96 353.826 1072.35 354.19C1072.74 354.554 1073.2 354.837 1073.71 355.022C1074.21 355.207 1074.74 355.291 1075.28 355.269C1075.82 355.247 1076.35 355.119 1076.84 354.893C1078.39 354.184 1079.89 353.386 1081.35 352.502Z" stroke="#002F46" stroke-width="2" stroke-miterlimit="10" stroke-linecap="round"/>
<path d="M1071.51 345.209C1071.63 345.139 1071.75 345.065 1071.87 344.994C1075 342.617 1077.5 339.505 1079.13 335.939C1080.77 332.373 1081.49 328.464 1081.23 324.566C1081.15 323.491 1080.65 322.493 1079.83 321.792C1079.02 321.091 1077.95 320.744 1076.87 320.828C1075.79 320.912 1074.79 321.419 1074.08 322.238C1073.37 323.057 1073.01 324.121 1073.09 325.196C1073.23 327.735 1072.75 330.276 1071.69 332.597C1070.63 334.918 1069.01 336.948 1066.99 338.512C1066.56 338.835 1066.19 339.238 1065.92 339.699C1065.65 340.161 1065.46 340.67 1065.39 341.2C1065.31 341.729 1065.34 342.267 1065.47 342.784C1065.6 343.301 1065.84 343.785 1066.16 344.211C1066.77 345.008 1067.65 345.551 1068.64 345.736C1069.63 345.92 1070.65 345.733 1071.51 345.209Z" stroke="#002F46" stroke-width="2" stroke-miterlimit="10" stroke-linecap="round"/>
</g>
<defs>
<filter id="filter0_f_577_11049" x="1008" y="0" width="382" height="382" filterUnits="userSpaceOnUse" color-interpolation-filters="sRGB">
<feFlood flood-opacity="0" result="BackgroundImageFix"/>
<feBlend mode="normal" in="SourceGraphic" in2="BackgroundImageFix" result="shape"/>
<feGaussianBlur stdDeviation="36" result="effect1_foregroundBlur_577_11049"/>
</filter>
<filter id="filter1_f_577_11049" x="-58" y="321" width="382" height="382" filterUnits="userSpaceOnUse" color-interpolation-filters="sRGB">
<feFlood flood-opacity="0" result="BackgroundImageFix"/>
<feBlend mode="normal" in="SourceGraphic" in2="BackgroundImageFix" result="shape"/>
<feGaussianBlur stdDeviation="36" result="effect1_foregroundBlur_577_11049"/>
</filter>
<filter id="filter2_f_577_11049" x="-45" y="222" width="444" height="444" filterUnits="userSpaceOnUse" color-interpolation-filters="sRGB">
<feFlood flood-opacity="0" result="BackgroundImageFix"/>
<feBlend mode="normal" in="SourceGraphic" in2="BackgroundImageFix" result="shape"/>
<feGaussianBlur stdDeviation="67.5" result="effect1_foregroundBlur_577_11049"/>
</filter>
<linearGradient id="paint0_linear_577_11049" x1="1199" y1="72" x2="1199" y2="310" gradientUnits="userSpaceOnUse">
<stop offset="1" stop-color="#1CB3FF"/>
</linearGradient>
<linearGradient id="paint1_linear_577_11049" x1="133" y1="393" x2="133" y2="631" gradientUnits="userSpaceOnUse">
<stop offset="1" stop-color="#1CB3FF"/>
</linearGradient>
<linearGradient id="paint2_linear_577_11049" x1="177" y1="357" x2="177" y2="531" gradientUnits="userSpaceOnUse">
<stop stop-color="#FFB015"/>
<stop offset="1" stop-color="#1CB3FF"/>
</linearGradient>
<clipPath id="clip0_577_11049">
<rect width="120.761" height="120.761" fill="white" transform="translate(742.986 275.728) rotate(-100.49)"/>
</clipPath>
<clipPath id="clip1_577_11049">
<rect width="48" height="31" fill="white" transform="matrix(-0.855286 0.518156 0.518156 0.855286 1098.69 306.41)"/>
</clipPath>
</defs>
</svg>
