<svg width="1390" height="830" viewBox="0 0 1390 830" fill="none" xmlns="http://www.w3.org/2000/svg">
<g clip-path="url(#clip0_1008_12995)">
<path fill-rule="evenodd" clip-rule="evenodd" d="M727.803 253.194C728.672 253.874 729.424 254.455 729.823 254.76C732.257 256.609 737.743 261.937 742.813 264.339C746.68 266.173 750.318 266.315 752.612 262.978C754.697 259.945 753.938 255.802 751.403 251.428C745.948 242.015 732.445 231.342 727.534 229.171C726.997 228.934 726.372 229.175 726.135 229.712C725.899 230.246 726.141 230.871 726.677 231.107C731.39 233.192 744.333 243.454 749.57 252.491C751.617 256.023 752.549 259.329 750.865 261.779C749.203 264.197 746.525 263.755 743.721 262.425C738.786 260.088 733.474 254.875 731.106 253.073C729.621 251.943 724.078 247.477 723.511 247.209C722.801 246.872 722.359 247.303 722.224 247.455C722.12 247.572 721.637 248.193 722.259 248.928C731.13 259.413 737.485 281.642 735.65 302.074C733.832 322.327 723.909 340.858 700.054 344.162C699.475 344.243 699.07 344.779 699.149 345.357C699.23 345.937 699.766 346.342 700.345 346.26C725.339 342.797 735.855 323.482 737.761 302.265C739.367 284.384 734.815 265.183 727.803 253.194Z" fill="black"/>
<path fill-rule="evenodd" clip-rule="evenodd" d="M701.415 344.872C703.117 343.042 704.869 341.275 706.43 339.313C710.589 334.086 713.802 327.774 715.033 321.184C715.139 320.607 714.759 320.055 714.185 319.947C713.608 319.841 713.056 320.221 712.948 320.794C711.785 327.049 708.717 333.034 704.771 337.993C702.984 340.238 700.939 342.226 699.015 344.349C698.921 344.456 698.057 345.352 697.926 345.592C697.619 346.147 697.847 346.573 697.978 346.757C698.085 346.912 698.251 347.071 698.513 347.179C698.729 347.266 699.177 347.335 699.796 347.3C701.778 347.194 706.368 346.284 707.137 346.214C715.953 345.413 724.289 346.148 733.085 346.702C733.669 346.737 734.174 346.293 734.211 345.71C734.248 345.127 733.804 344.625 733.221 344.588C724.313 344.026 715.87 343.293 706.947 344.105C706.418 344.151 703.504 344.568 701.415 344.872Z" fill="black"/>
</g>
<g filter="url(#filter0_f_1008_12995)">
<circle cx="1199" cy="318" r="119" fill="url(#paint0_linear_1008_12995)" fill-opacity="0.37"/>
</g>
<g filter="url(#filter1_f_1008_12995)">
<circle cx="269" cy="191" r="119" fill="url(#paint1_linear_1008_12995)" fill-opacity="0.37"/>
</g>
<g filter="url(#filter2_f_1008_12995)">
<circle cx="400" cy="372" r="72" fill="url(#paint2_linear_1008_12995)" fill-opacity="0.37"/>
</g>
<g clip-path="url(#clip1_1008_12995)">
<path fill-rule="evenodd" clip-rule="evenodd" d="M1119.8 419.194C1120.67 419.874 1121.42 420.455 1121.82 420.76C1124.26 422.609 1129.74 427.937 1134.81 430.339C1138.68 432.173 1142.32 432.315 1144.61 428.978C1146.7 425.945 1145.94 421.802 1143.4 417.428C1137.95 408.015 1124.45 397.342 1119.53 395.171C1119 394.934 1118.37 395.175 1118.14 395.712C1117.9 396.246 1118.14 396.871 1118.68 397.107C1123.39 399.192 1136.33 409.454 1141.57 418.491C1143.62 422.023 1144.55 425.329 1142.86 427.779C1141.2 430.197 1138.52 429.755 1135.72 428.425C1130.79 426.088 1125.47 420.875 1123.11 419.073C1121.62 417.943 1116.08 413.477 1115.51 413.209C1114.8 412.872 1114.36 413.303 1114.22 413.455C1114.12 413.572 1113.64 414.193 1114.26 414.928C1123.13 425.413 1129.49 447.642 1127.65 468.074C1125.83 488.327 1115.91 506.858 1092.05 510.162C1091.48 510.243 1091.07 510.779 1091.15 511.357C1091.23 511.937 1091.77 512.342 1092.35 512.26C1117.34 508.797 1127.86 489.482 1129.76 468.265C1131.37 450.384 1126.81 431.183 1119.8 419.194Z" fill="black"/>
<path fill-rule="evenodd" clip-rule="evenodd" d="M1093.42 510.871C1095.12 509.042 1096.87 507.275 1098.43 505.313C1102.59 500.086 1105.8 493.774 1107.03 487.184C1107.14 486.607 1106.76 486.055 1106.19 485.947C1105.61 485.841 1105.06 486.221 1104.95 486.794C1103.78 493.049 1100.72 499.034 1096.77 503.993C1094.98 506.238 1092.94 508.226 1091.02 510.349C1090.92 510.456 1090.06 511.352 1089.93 511.592C1089.62 512.147 1089.85 512.573 1089.98 512.757C1090.09 512.912 1090.25 513.071 1090.51 513.179C1090.73 513.266 1091.18 513.335 1091.8 513.3C1093.78 513.194 1098.37 512.284 1099.14 512.214C1107.95 511.413 1116.29 512.148 1125.09 512.702C1125.67 512.737 1126.17 512.293 1126.21 511.71C1126.25 511.127 1125.8 510.625 1125.22 510.588C1116.31 510.026 1107.87 509.293 1098.95 510.105C1098.42 510.151 1095.5 510.568 1093.42 510.871Z" fill="black"/>
</g>
<g clip-path="url(#clip2_1008_12995)">
<path d="M314.915 279.611C302.659 272.628 293.546 259.969 291.149 246.143C290.963 245.08 291.208 243.99 291.831 243.113C292.454 242.235 293.402 241.643 294.469 241.465C295.535 241.288 296.632 241.54 297.518 242.166C298.403 242.792 299.005 243.742 299.192 244.805C301.416 257.637 310.629 269.249 322.663 274.395C323.16 274.604 323.611 274.908 323.99 275.291C324.369 275.674 324.669 276.127 324.872 276.624C325.075 277.122 325.177 277.654 325.173 278.189C325.169 278.725 325.058 279.254 324.847 279.745C324.64 280.238 324.337 280.684 323.955 281.058C323.573 281.433 323.12 281.727 322.622 281.926C322.124 282.125 321.591 282.223 321.054 282.215C320.516 282.207 319.984 282.094 319.489 281.881C317.922 281.214 316.394 280.456 314.915 279.611Z" stroke="#002F46" stroke-width="2" stroke-miterlimit="10" stroke-linecap="round"/>
<path d="M324.55 272.058C324.431 271.991 324.308 271.921 324.189 271.853C320.994 269.56 318.416 266.516 316.688 262.995C314.959 259.474 314.134 255.586 314.288 251.682C314.335 250.605 314.81 249.595 315.608 248.872C316.406 248.149 317.462 247.774 318.544 247.829C319.626 247.884 320.644 248.364 321.376 249.164C322.107 249.964 322.492 251.018 322.445 252.095C322.365 254.636 322.912 257.163 324.037 259.455C325.162 261.747 326.831 263.733 328.899 265.242C329.337 265.553 329.71 265.947 329.996 266.401C330.282 266.854 330.476 267.359 330.567 267.886C330.658 268.413 330.644 268.952 330.526 269.472C330.407 269.992 330.187 270.483 329.877 270.917C329.293 271.73 328.425 272.297 327.441 272.507C326.457 272.718 325.427 272.558 324.55 272.058Z" stroke="#002F46" stroke-width="2" stroke-miterlimit="10" stroke-linecap="round"/>
</g>
<g clip-path="url(#clip3_1008_12995)">
<path d="M1218.26 273.255C1230.32 265.946 1239.09 253.048 1241.12 239.163C1241.28 238.095 1241 237.012 1240.36 236.151C1239.71 235.291 1238.75 234.724 1237.68 234.575C1236.61 234.426 1235.52 234.708 1234.65 235.357C1233.78 236.007 1233.2 236.972 1233.05 238.04C1231.17 250.927 1222.27 262.782 1210.37 268.247C1209.88 268.469 1209.44 268.786 1209.07 269.178C1208.7 269.571 1208.42 270.032 1208.23 270.535C1208.04 271.038 1207.95 271.572 1207.97 272.107C1207.99 272.643 1208.11 273.168 1208.33 273.654C1208.55 274.141 1208.87 274.579 1209.26 274.943C1209.65 275.307 1210.11 275.589 1210.62 275.774C1211.12 275.96 1211.65 276.043 1212.19 276.021C1212.73 275.999 1213.26 275.871 1213.75 275.645C1215.3 274.937 1216.8 274.138 1218.26 273.255Z" stroke="#002F46" stroke-width="2" stroke-miterlimit="10" stroke-linecap="round"/>
<path d="M1208.43 265.962C1208.54 265.891 1208.66 265.818 1208.78 265.747C1211.91 263.369 1214.41 260.257 1216.04 256.691C1217.68 253.125 1218.4 249.217 1218.14 245.318C1218.06 244.243 1217.56 243.246 1216.74 242.545C1215.93 241.844 1214.86 241.497 1213.78 241.58C1212.7 241.664 1211.7 242.171 1210.99 242.991C1210.28 243.81 1209.92 244.874 1210 245.949C1210.14 248.488 1209.66 251.028 1208.6 253.349C1207.54 255.67 1205.92 257.701 1203.9 259.264C1203.47 259.587 1203.1 259.991 1202.83 260.452C1202.56 260.913 1202.38 261.423 1202.3 261.952C1202.22 262.481 1202.25 263.02 1202.38 263.536C1202.52 264.053 1202.75 264.538 1203.07 264.963C1203.68 265.761 1204.56 266.304 1205.55 266.488C1206.54 266.673 1207.56 266.485 1208.43 265.962Z" stroke="#002F46" stroke-width="2" stroke-miterlimit="10" stroke-linecap="round"/>
</g>
<g clip-path="url(#clip4_1008_12995)">
<path d="M231.349 196.502C243.413 189.193 252.185 176.295 254.212 162.41C254.369 161.342 254.094 160.259 253.448 159.399C252.803 158.539 251.838 157.972 250.768 157.822C249.697 157.674 248.607 157.955 247.739 158.605C246.87 159.255 246.293 160.22 246.136 161.287C244.255 174.175 235.357 186.029 223.464 191.494C222.973 191.717 222.531 192.033 222.162 192.426C221.793 192.819 221.505 193.28 221.316 193.782C221.126 194.285 221.038 194.82 221.056 195.355C221.075 195.89 221.2 196.416 221.424 196.901C221.644 197.388 221.959 197.826 222.351 198.19C222.742 198.554 223.203 198.837 223.706 199.022C224.209 199.207 224.745 199.291 225.282 199.269C225.819 199.247 226.348 199.119 226.837 198.893C228.386 198.184 229.892 197.386 231.349 196.502Z" stroke="#002F46" stroke-width="2" stroke-miterlimit="10" stroke-linecap="round"/>
<path d="M221.515 189.209C221.632 189.139 221.753 189.065 221.87 188.994C225.003 186.617 227.498 183.505 229.132 179.939C230.766 176.373 231.486 172.464 231.229 168.566C231.152 167.491 230.651 166.493 229.833 165.792C229.016 165.091 227.951 164.744 226.871 164.828C225.791 164.912 224.786 165.419 224.076 166.238C223.366 167.057 223.01 168.121 223.086 169.196C223.233 171.735 222.754 174.276 221.691 176.597C220.628 178.918 219.012 180.948 216.986 182.512C216.556 182.835 216.194 183.238 215.92 183.699C215.646 184.161 215.465 184.67 215.388 185.2C215.312 185.729 215.34 186.267 215.472 186.784C215.605 187.301 215.838 187.785 216.159 188.211C216.765 189.008 217.648 189.551 218.637 189.736C219.626 189.92 220.651 189.733 221.515 189.209Z" stroke="#002F46" stroke-width="2" stroke-miterlimit="10" stroke-linecap="round"/>
</g>
<g clip-path="url(#clip5_1008_12995)">
<path d="M451.071 192.864C456.224 189.742 459.971 184.233 460.837 178.301C460.904 177.845 460.787 177.382 460.511 177.015C460.235 176.647 459.823 176.405 459.366 176.341C458.908 176.278 458.443 176.398 458.072 176.676C457.701 176.953 457.455 177.365 457.387 177.822C456.584 183.327 452.783 188.39 447.703 190.725C447.493 190.82 447.304 190.955 447.146 191.123C446.989 191.291 446.866 191.488 446.785 191.702C446.704 191.917 446.666 192.145 446.674 192.374C446.682 192.603 446.736 192.827 446.831 193.035C446.925 193.243 447.06 193.43 447.227 193.585C447.394 193.741 447.591 193.861 447.806 193.941C448.021 194.02 448.25 194.055 448.479 194.046C448.709 194.037 448.935 193.982 449.143 193.885C449.805 193.583 450.449 193.242 451.071 192.864Z" stroke="#002F46" stroke-width="2" stroke-miterlimit="10" stroke-linecap="round"/>
<path d="M446.87 189.749C446.92 189.719 446.972 189.687 447.022 189.657C448.36 188.642 449.426 187.312 450.124 185.789C450.822 184.266 451.13 182.596 451.019 180.931C450.987 180.471 450.773 180.045 450.424 179.746C450.074 179.447 449.619 179.298 449.158 179.334C448.697 179.37 448.267 179.586 447.964 179.936C447.661 180.286 447.509 180.741 447.541 181.2C447.604 182.285 447.4 183.37 446.945 184.361C446.491 185.353 445.801 186.22 444.935 186.888C444.752 187.026 444.597 187.198 444.48 187.395C444.363 187.592 444.286 187.81 444.253 188.036C444.22 188.262 444.232 188.492 444.289 188.713C444.345 188.934 444.445 189.141 444.582 189.322C444.841 189.663 445.218 189.895 445.641 189.974C446.063 190.053 446.501 189.972 446.87 189.749Z" stroke="#002F46" stroke-width="2" stroke-miterlimit="10" stroke-linecap="round"/>
</g>
<path d="M229.47 581.875L278.651 501.393L295.138 559.498L339.949 484" stroke="#00ABFF" stroke-width="17"/>
<path d="M1229.54 377.832L1318.36 409.577L1264.83 437.561L1347.88 466.042" stroke="#00ABFF" stroke-width="17"/>
<g filter="url(#filter3_f_1008_12995)">
<circle cx="133" cy="639" r="119" fill="url(#paint3_linear_1008_12995)" fill-opacity="0.37"/>
</g>
<g filter="url(#filter4_f_1008_12995)">
<circle cx="177" cy="571" r="87" fill="url(#paint4_linear_1008_12995)"/>
</g>
<defs>
<filter id="filter0_f_1008_12995" x="1008" y="127" width="382" height="382" filterUnits="userSpaceOnUse" color-interpolation-filters="sRGB">
<feFlood flood-opacity="0" result="BackgroundImageFix"/>
<feBlend mode="normal" in="SourceGraphic" in2="BackgroundImageFix" result="shape"/>
<feGaussianBlur stdDeviation="36" result="effect1_foregroundBlur_1008_12995"/>
</filter>
<filter id="filter1_f_1008_12995" x="78" y="0" width="382" height="382" filterUnits="userSpaceOnUse" color-interpolation-filters="sRGB">
<feFlood flood-opacity="0" result="BackgroundImageFix"/>
<feBlend mode="normal" in="SourceGraphic" in2="BackgroundImageFix" result="shape"/>
<feGaussianBlur stdDeviation="36" result="effect1_foregroundBlur_1008_12995"/>
</filter>
<filter id="filter2_f_1008_12995" x="256" y="228" width="288" height="288" filterUnits="userSpaceOnUse" color-interpolation-filters="sRGB">
<feFlood flood-opacity="0" result="BackgroundImageFix"/>
<feBlend mode="normal" in="SourceGraphic" in2="BackgroundImageFix" result="shape"/>
<feGaussianBlur stdDeviation="36" result="effect1_foregroundBlur_1008_12995"/>
</filter>
<filter id="filter3_f_1008_12995" x="-58" y="448" width="382" height="382" filterUnits="userSpaceOnUse" color-interpolation-filters="sRGB">
<feFlood flood-opacity="0" result="BackgroundImageFix"/>
<feBlend mode="normal" in="SourceGraphic" in2="BackgroundImageFix" result="shape"/>
<feGaussianBlur stdDeviation="36" result="effect1_foregroundBlur_1008_12995"/>
</filter>
<filter id="filter4_f_1008_12995" x="-45" y="349" width="444" height="444" filterUnits="userSpaceOnUse" color-interpolation-filters="sRGB">
<feFlood flood-opacity="0" result="BackgroundImageFix"/>
<feBlend mode="normal" in="SourceGraphic" in2="BackgroundImageFix" result="shape"/>
<feGaussianBlur stdDeviation="67.5" result="effect1_foregroundBlur_1008_12995"/>
</filter>
<linearGradient id="paint0_linear_1008_12995" x1="1199" y1="199" x2="1199" y2="437" gradientUnits="userSpaceOnUse">
<stop offset="1" stop-color="#1CB3FF"/>
</linearGradient>
<linearGradient id="paint1_linear_1008_12995" x1="269" y1="72" x2="269" y2="310" gradientUnits="userSpaceOnUse">
<stop offset="1" stop-color="#1CB3FF"/>
</linearGradient>
<linearGradient id="paint2_linear_1008_12995" x1="400" y1="300" x2="400" y2="444" gradientUnits="userSpaceOnUse">
<stop offset="1" stop-color="#1CB3FF"/>
</linearGradient>
<linearGradient id="paint3_linear_1008_12995" x1="133" y1="520" x2="133" y2="758" gradientUnits="userSpaceOnUse">
<stop offset="1" stop-color="#1CB3FF"/>
</linearGradient>
<linearGradient id="paint4_linear_1008_12995" x1="177" y1="484" x2="177" y2="658" gradientUnits="userSpaceOnUse">
<stop stop-color="#FFB015"/>
<stop offset="1" stop-color="#1CB3FF"/>
</linearGradient>
<clipPath id="clip0_1008_12995">
<rect width="120.761" height="120.761" fill="white" transform="translate(805.624 258.643) rotate(110.678)"/>
</clipPath>
<clipPath id="clip1_1008_12995">
<rect width="120.761" height="120.761" fill="white" transform="translate(1197.62 424.643) rotate(110.678)"/>
</clipPath>
<clipPath id="clip2_1008_12995">
<rect width="48" height="31" fill="white" transform="translate(296.348 234) rotate(29.6762)"/>
</clipPath>
<clipPath id="clip3_1008_12995">
<rect width="48" height="31" fill="white" transform="matrix(-0.855286 0.518156 0.518156 0.855286 1235.6 227.163)"/>
</clipPath>
<clipPath id="clip4_1008_12995">
<rect width="48" height="31" fill="white" transform="matrix(-0.855286 0.518156 0.518156 0.855286 248.689 150.41)"/>
</clipPath>
<clipPath id="clip5_1008_12995">
<rect width="20.504" height="13.2422" fill="white" transform="matrix(-0.855286 0.518156 0.518156 0.855286 458.478 173.175)"/>
</clipPath>
</defs>
</svg>
