<svg width="1390" height="703" viewBox="0 0 1390 703" fill="none" xmlns="http://www.w3.org/2000/svg">
<g filter="url(#filter0_f_569_11058)">
<circle cx="1199" cy="191" r="119" fill="url(#paint0_linear_569_11058)" fill-opacity="0.37"/>
</g>
<rect x="996" y="234" width="76" height="76" rx="38" fill="#00ABFF"/>
<path d="M1022.44 277.362C1021.87 277.691 1021.67 278.419 1022 278.989C1022.33 279.559 1023.06 279.754 1023.63 279.425L1022.44 277.362ZM1045.64 266.717C1046.21 266.388 1046.41 265.66 1046.08 265.09C1045.75 264.52 1045.02 264.325 1044.45 264.654L1045.64 266.717ZM1035.87 260.832C1035.24 260.664 1034.59 261.044 1034.42 261.681C1034.25 262.317 1034.63 262.969 1035.27 263.136L1035.87 260.832ZM1039.38 262.987L1039.08 264.14L1039.38 262.987ZM1044.55 271.937L1043.4 271.623L1044.55 271.937ZM1042.36 275.427C1042.19 276.062 1042.57 276.717 1043.2 276.89C1043.83 277.063 1044.49 276.689 1044.66 276.054L1042.36 275.427ZM1044.77 265.27L1045.72 264.549L1045.72 264.549L1044.77 265.27ZM1045.27 266.132L1046.37 265.672L1046.37 265.672L1045.27 266.132ZM1023.63 279.425L1045.64 266.717L1044.45 264.654L1022.44 277.362L1023.63 279.425ZM1035.27 263.136L1039.08 264.14L1039.69 261.835L1035.87 260.832L1035.27 263.136ZM1043.4 271.623L1042.36 275.427L1044.66 276.054L1045.7 272.25L1043.4 271.623ZM1039.08 264.14C1040.63 264.547 1041.69 264.828 1042.48 265.134C1043.24 265.43 1043.6 265.697 1043.82 265.992L1045.72 264.549C1045.12 263.761 1044.3 263.287 1043.34 262.913C1042.4 262.547 1041.18 262.228 1039.69 261.835L1039.08 264.14ZM1045.7 272.25C1046.11 270.761 1046.44 269.547 1046.59 268.549C1046.75 267.527 1046.75 266.585 1046.37 265.672L1044.17 266.593C1044.31 266.934 1044.36 267.377 1044.24 268.186C1044.11 269.018 1043.82 270.08 1043.4 271.623L1045.7 272.25ZM1043.82 265.992C1043.96 266.176 1044.08 266.378 1044.17 266.593L1046.37 265.672C1046.2 265.272 1045.98 264.894 1045.72 264.549L1043.82 265.992Z" fill="white"/>
<g clip-path="url(#clip0_569_11058)">
<path fill-rule="evenodd" clip-rule="evenodd" d="M1119.8 292.194C1120.67 292.874 1121.42 293.455 1121.82 293.76C1124.26 295.609 1129.74 300.937 1134.81 303.339C1138.68 305.173 1142.32 305.315 1144.61 301.978C1146.7 298.945 1145.94 294.802 1143.4 290.428C1137.95 281.015 1124.45 270.342 1119.53 268.171C1119 267.934 1118.37 268.175 1118.14 268.712C1117.9 269.246 1118.14 269.871 1118.68 270.107C1123.39 272.192 1136.33 282.454 1141.57 291.491C1143.62 295.023 1144.55 298.329 1142.86 300.779C1141.2 303.197 1138.52 302.755 1135.72 301.425C1130.79 299.088 1125.47 293.875 1123.11 292.073C1121.62 290.943 1116.08 286.477 1115.51 286.209C1114.8 285.872 1114.36 286.303 1114.22 286.455C1114.12 286.572 1113.64 287.193 1114.26 287.928C1123.13 298.413 1129.49 320.642 1127.65 341.074C1125.83 361.327 1115.91 379.858 1092.05 383.162C1091.48 383.243 1091.07 383.779 1091.15 384.357C1091.23 384.937 1091.77 385.342 1092.35 385.26C1117.34 381.797 1127.86 362.482 1129.76 341.265C1131.37 323.384 1126.81 304.183 1119.8 292.194Z" fill="black"/>
<path fill-rule="evenodd" clip-rule="evenodd" d="M1093.42 383.871C1095.12 382.042 1096.87 380.275 1098.43 378.313C1102.59 373.086 1105.8 366.774 1107.03 360.184C1107.14 359.607 1106.76 359.055 1106.19 358.947C1105.61 358.841 1105.06 359.221 1104.95 359.794C1103.78 366.049 1100.72 372.034 1096.77 376.993C1094.98 379.238 1092.94 381.226 1091.02 383.349C1090.92 383.456 1090.06 384.352 1089.93 384.592C1089.62 385.147 1089.85 385.573 1089.98 385.757C1090.09 385.912 1090.25 386.071 1090.51 386.179C1090.73 386.266 1091.18 386.335 1091.8 386.3C1093.78 386.194 1098.37 385.284 1099.14 385.214C1107.95 384.413 1116.29 385.148 1125.09 385.702C1125.67 385.737 1126.17 385.293 1126.21 384.71C1126.25 384.127 1125.8 383.625 1125.22 383.588C1116.31 383.026 1107.87 382.293 1098.95 383.105C1098.42 383.151 1095.5 383.568 1093.42 383.871Z" fill="black"/>
</g>
<g clip-path="url(#clip1_569_11058)">
<path d="M1218.26 146.255C1230.32 138.946 1239.09 126.048 1241.12 112.163C1241.28 111.095 1241 110.012 1240.36 109.151C1239.71 108.291 1238.75 107.724 1237.68 107.575C1236.61 107.426 1235.52 107.708 1234.65 108.357C1233.78 109.007 1233.2 109.972 1233.05 111.04C1231.17 123.927 1222.27 135.782 1210.37 141.247C1209.88 141.469 1209.44 141.786 1209.07 142.178C1208.7 142.571 1208.42 143.032 1208.23 143.535C1208.04 144.038 1207.95 144.572 1207.97 145.107C1207.99 145.643 1208.11 146.168 1208.33 146.654C1208.55 147.141 1208.87 147.579 1209.26 147.943C1209.65 148.307 1210.11 148.589 1210.62 148.774C1211.12 148.96 1211.65 149.043 1212.19 149.021C1212.73 148.999 1213.26 148.871 1213.75 148.645C1215.3 147.937 1216.8 147.138 1218.26 146.255Z" stroke="#002F46" stroke-width="2" stroke-miterlimit="10" stroke-linecap="round"/>
<path d="M1208.43 138.962C1208.54 138.891 1208.66 138.818 1208.78 138.747C1211.91 136.369 1214.41 133.257 1216.04 129.691C1217.68 126.125 1218.4 122.217 1218.14 118.318C1218.06 117.243 1217.56 116.246 1216.74 115.545C1215.93 114.844 1214.86 114.497 1213.78 114.58C1212.7 114.664 1211.7 115.171 1210.99 115.991C1210.28 116.81 1209.92 117.874 1210 118.949C1210.14 121.488 1209.66 124.028 1208.6 126.349C1207.54 128.67 1205.92 130.701 1203.9 132.264C1203.47 132.587 1203.1 132.991 1202.83 133.452C1202.56 133.913 1202.38 134.423 1202.3 134.952C1202.22 135.481 1202.25 136.02 1202.38 136.536C1202.52 137.053 1202.75 137.538 1203.07 137.963C1203.68 138.761 1204.56 139.304 1205.55 139.488C1206.54 139.673 1207.56 139.485 1208.43 138.962Z" stroke="#002F46" stroke-width="2" stroke-miterlimit="10" stroke-linecap="round"/>
</g>
<path d="M281.051 409.179L307.27 366.273L316.06 397.249L339.949 357" stroke="#00ABFF" stroke-width="4"/>
<path d="M1229.54 250.832L1318.36 282.577L1264.83 310.561L1347.88 339.042" stroke="#00ABFF" stroke-width="17"/>
<g filter="url(#filter1_f_569_11058)">
<circle cx="133" cy="512" r="119" fill="url(#paint1_linear_569_11058)" fill-opacity="0.37"/>
</g>
<g filter="url(#filter2_f_569_11058)">
<circle cx="177" cy="444" r="87" fill="url(#paint2_linear_569_11058)"/>
</g>
<circle cx="139" cy="74" r="12.5" stroke="#00ABFF"/>
<path d="M164.5 81C164.5 87.9222 159.109 93.5 152.5 93.5C145.891 93.5 140.5 87.9222 140.5 81C140.5 74.0778 145.891 68.5 152.5 68.5C159.109 68.5 164.5 74.0778 164.5 81Z" stroke="#002F46"/>
<defs>
<filter id="filter0_f_569_11058" x="1008" y="0" width="382" height="382" filterUnits="userSpaceOnUse" color-interpolation-filters="sRGB">
<feFlood flood-opacity="0" result="BackgroundImageFix"/>
<feBlend mode="normal" in="SourceGraphic" in2="BackgroundImageFix" result="shape"/>
<feGaussianBlur stdDeviation="36" result="effect1_foregroundBlur_569_11058"/>
</filter>
<filter id="filter1_f_569_11058" x="-58" y="321" width="382" height="382" filterUnits="userSpaceOnUse" color-interpolation-filters="sRGB">
<feFlood flood-opacity="0" result="BackgroundImageFix"/>
<feBlend mode="normal" in="SourceGraphic" in2="BackgroundImageFix" result="shape"/>
<feGaussianBlur stdDeviation="36" result="effect1_foregroundBlur_569_11058"/>
</filter>
<filter id="filter2_f_569_11058" x="-45" y="222" width="444" height="444" filterUnits="userSpaceOnUse" color-interpolation-filters="sRGB">
<feFlood flood-opacity="0" result="BackgroundImageFix"/>
<feBlend mode="normal" in="SourceGraphic" in2="BackgroundImageFix" result="shape"/>
<feGaussianBlur stdDeviation="67.5" result="effect1_foregroundBlur_569_11058"/>
</filter>
<linearGradient id="paint0_linear_569_11058" x1="1199" y1="72" x2="1199" y2="310" gradientUnits="userSpaceOnUse">
<stop offset="1" stop-color="#1CB3FF"/>
</linearGradient>
<linearGradient id="paint1_linear_569_11058" x1="133" y1="393" x2="133" y2="631" gradientUnits="userSpaceOnUse">
<stop offset="1" stop-color="#1CB3FF"/>
</linearGradient>
<linearGradient id="paint2_linear_569_11058" x1="177" y1="357" x2="177" y2="531" gradientUnits="userSpaceOnUse">
<stop stop-color="#FFB015"/>
<stop offset="1" stop-color="#1CB3FF"/>
</linearGradient>
<clipPath id="clip0_569_11058">
<rect width="120.761" height="120.761" fill="white" transform="translate(1197.62 297.643) rotate(110.678)"/>
</clipPath>
<clipPath id="clip1_569_11058">
<rect width="48" height="31" fill="white" transform="matrix(-0.855286 0.518156 0.518156 0.855286 1235.6 100.163)"/>
</clipPath>
</defs>
</svg>
