<svg width="246" height="141" viewBox="0 0 246 141" fill="none" xmlns="http://www.w3.org/2000/svg">
<path d="M124 132.667C146.916 132.667 165.666 113.917 165.666 91C165.666 68.0833 146.916 49.3333 124 49.3333C101.083 49.3333 82.333 68.0833 82.333 91C82.333 113.917 101.083 132.667 124 132.667Z" fill="url(#paint0_linear_606_8654)" stroke="#00ABFF" stroke-width="4" stroke-linecap="round" stroke-linejoin="round"/>
<path d="M106.292 91L118.084 102.792L141.709 79.2083" stroke="white" stroke-width="4" stroke-linecap="round" stroke-linejoin="round"/>
<circle cx="171.294" cy="37.7805" r="4.89411" fill="#5BA0ED"/>
<circle cx="83.8121" cy="37.7805" r="4.89411" fill="#5BA0ED"/>
<circle cx="43.4351" cy="56.7452" r="4.89411" fill="#5BA0ED"/>
<path d="M8.89249 13.39C7.79235 15.2955 5.3558 15.9483 3.4503 14.8482C1.54481 13.7481 0.891935 11.3115 1.99207 9.40602M36.4941 29.3258C35.394 31.2313 32.9574 31.8842 31.0519 30.784C29.1465 29.6839 28.4936 27.2473 29.5937 25.3418M22.6933 21.3579C21.5932 23.2634 19.1566 23.9162 17.2511 22.8161C15.3456 21.716 14.6928 19.2794 15.7929 17.3739M50.295 37.2937C49.1948 39.1992 46.7583 39.8521 44.8528 38.7519C42.9473 37.6518 42.2944 35.2152 43.3945 33.3097M8.87002 13.4289C9.97016 11.5234 12.4217 10.8446 14.3272 11.9447C16.2327 13.0449 16.8855 15.4814 15.7854 17.3869M36.4717 29.3647C37.5718 27.4592 40.0233 26.7804 41.9288 27.8805C43.8343 28.9807 44.4872 31.4172 43.3871 33.3227M22.6708 21.3968C23.771 19.4913 26.2225 18.8125 28.128 19.9126C30.0335 21.0128 30.6864 23.4493 29.5862 25.3548M50.2725 37.3326C51.3726 35.4271 53.8241 34.7483 55.7296 35.8484C57.6351 36.9486 58.288 39.3851 57.1879 41.2906" stroke="#5BA0ED" stroke-width="2.25235"/>
<path d="M202.941 42.2456C204.496 43.8015 204.496 46.324 202.941 47.8798C201.385 49.4356 198.862 49.4356 197.306 47.8798M225.477 19.709C227.033 21.2648 227.033 23.7873 225.477 25.3431C223.921 26.899 221.399 26.899 219.843 25.3431M214.209 30.9773C215.765 32.5331 215.765 35.0556 214.209 36.6115C212.653 38.1673 210.131 38.1673 208.575 36.6115M236.746 8.44066C238.301 9.99649 238.301 12.519 236.746 14.0748C235.19 15.6307 232.667 15.6307 231.111 14.0748M202.972 42.2774C201.417 40.7216 201.395 38.1779 202.951 36.6221C204.507 35.0662 207.03 35.0662 208.585 36.6221M225.509 19.7408C223.953 18.1849 223.932 15.6412 225.488 14.0854C227.044 12.5296 229.566 12.5296 231.122 14.0854M214.241 31.0091C212.685 29.4532 212.664 26.9096 214.22 25.3537C215.775 23.7979 218.298 23.7979 219.854 25.3537M236.777 8.47243C235.222 6.9166 235.2 4.37292 236.756 2.81709C238.312 1.26126 240.835 1.26126 242.39 2.81709" stroke="#5BA0ED" stroke-width="2.25235"/>
<defs>
<linearGradient id="paint0_linear_606_8654" x1="82.333" y1="91" x2="165.666" y2="91" gradientUnits="userSpaceOnUse">
<stop stop-color="#002F46"/>
<stop offset="1" stop-color="#00ABFF"/>
</linearGradient>
</defs>
</svg>
