<svg width="410" height="540" viewBox="0 0 410 540" fill="none" xmlns="http://www.w3.org/2000/svg">
<rect width="254" height="540" rx="16" fill="black"/>
<g clip-path="url(#clip0_564_11052)">
<rect width="245.69" height="532" rx="15" fill="url(#paint0_linear_564_11052)"/>
<g clip-path="url(#clip1_564_11052)">
<g clip-path="url(#clip2_564_11052)">
<path d="M24.1335 24.7538C26.675 24.7538 28.4109 23.494 28.4109 21.641C28.4109 20.286 27.4807 19.2167 26.0744 18.9603V18.8285C27.2317 18.5575 27.9787 17.6493 27.9787 16.5214C27.9787 14.8441 26.382 13.6429 24.1408 13.6429C21.8923 13.6429 20.2956 14.8441 20.2956 16.5214C20.2956 17.6493 21.05 18.5575 22.1999 18.8285V18.9603C20.7863 19.2679 19.8708 20.33 19.8708 21.6556C19.8708 23.5013 21.592 24.7538 24.1335 24.7538ZM24.1335 18.2059C23.1594 18.2059 22.4782 17.598 22.4782 16.7264C22.4782 15.8475 23.1521 15.2323 24.1335 15.2323C25.115 15.2323 25.7961 15.8475 25.7961 16.7264C25.7961 17.598 25.115 18.2059 24.1335 18.2059ZM24.1335 23.1278C22.9763 23.1278 22.1706 22.4467 22.1706 21.4652C22.1706 20.4764 22.9763 19.7953 24.1335 19.7953C25.2981 19.7953 26.1037 20.4764 26.1037 21.4652C26.1037 22.4467 25.2981 23.1278 24.1335 23.1278ZM31.9558 17.8324C32.7468 17.8324 33.2522 17.3124 33.2522 16.5946C33.2522 15.8695 32.7468 15.3495 31.9558 15.3495C31.1721 15.3495 30.6594 15.8695 30.6594 16.5946C30.6594 17.3124 31.1721 17.8324 31.9558 17.8324ZM31.9558 23.0326C32.7468 23.0326 33.2522 22.5126 33.2522 21.7948C33.2522 21.0697 32.7468 20.5497 31.9558 20.5497C31.1721 20.5497 30.6594 21.0697 30.6594 21.7948C30.6594 22.5126 31.1721 23.0326 31.9558 23.0326ZM39.5803 24.7538C42.195 24.7538 43.7771 22.6884 43.7771 19.1874C43.7771 15.6791 42.1731 13.6429 39.5803 13.6429C36.9802 13.6429 35.3835 15.6791 35.3835 19.1801C35.3835 22.6884 36.9655 24.7538 39.5803 24.7538ZM39.5803 23.0033C38.3718 23.0033 37.6247 21.7142 37.6247 19.1801C37.6247 16.6678 38.3791 15.3934 39.5803 15.3934C40.7888 15.3934 41.5359 16.6605 41.5359 19.1801C41.5359 21.7142 40.7961 23.0033 39.5803 23.0033ZM49.8488 24.7538C52.4636 24.7538 54.0456 22.6884 54.0456 19.1874C54.0456 15.6791 52.4416 13.6429 49.8488 13.6429C47.2487 13.6429 45.6521 15.6791 45.6521 19.1801C45.6521 22.6884 47.2341 24.7538 49.8488 24.7538ZM49.8488 23.0033C48.6404 23.0033 47.8933 21.7142 47.8933 19.1801C47.8933 16.6678 48.6477 15.3934 49.8488 15.3934C51.0573 15.3934 51.8044 16.6605 51.8044 19.1801C51.8044 21.7142 51.0647 23.0033 49.8488 23.0033Z" fill="white"/>
<path opacity="0.35" d="M236.94 14.1251H226.021C225.236 14.1251 224.601 14.7608 224.601 15.5449V19.4753C224.601 20.2594 225.236 20.895 226.021 20.895H236.94C237.724 20.895 238.359 20.2594 238.359 19.4753V15.5449C238.359 14.7608 237.724 14.1251 236.94 14.1251Z" stroke="white" stroke-width="0.655172" stroke-miterlimit="10"/>
<path opacity="0.4" d="M239.342 16.2001V18.8208C239.6 18.7122 239.82 18.53 239.975 18.2969C240.13 18.0638 240.212 17.7902 240.212 17.5104C240.212 17.2306 240.13 16.9571 239.975 16.724C239.82 16.4909 239.6 16.3086 239.342 16.2001" fill="white"/>
<path d="M236.503 15.1079H226.457C225.975 15.1079 225.584 15.4989 225.584 15.9813V19.0389C225.584 19.5213 225.975 19.9123 226.457 19.9123H236.503C236.986 19.9123 237.377 19.5213 237.377 19.0389V15.9813C237.377 15.4989 236.986 15.1079 236.503 15.1079Z" fill="white"/>
<path d="M215.973 20.9807C215.946 20.9806 215.919 20.9751 215.894 20.9647C215.87 20.9542 215.847 20.939 215.828 20.9198L214.518 19.599C214.498 19.5793 214.482 19.5558 214.472 19.5299C214.461 19.504 214.456 19.4762 214.456 19.4482C214.457 19.4202 214.463 19.3926 214.475 19.3672C214.487 19.3417 214.504 19.3189 214.524 19.3002C214.929 18.9579 215.442 18.77 215.972 18.77C216.502 18.77 217.015 18.9579 217.42 19.3002C217.44 19.3191 217.456 19.342 217.468 19.3675C217.479 19.3929 217.485 19.4204 217.485 19.4483C217.486 19.4763 217.48 19.504 217.47 19.5299C217.459 19.5559 217.443 19.5793 217.424 19.599L216.113 20.9198C216.076 20.9577 216.026 20.9796 215.973 20.9807V20.9807ZM218.271 18.6627C218.219 18.6627 218.169 18.6428 218.131 18.607C217.54 18.0711 216.771 17.7743 215.974 17.7743C215.176 17.7743 214.407 18.0711 213.817 18.607C213.779 18.6428 213.729 18.6627 213.677 18.6627C213.65 18.6628 213.623 18.6576 213.599 18.6474C213.574 18.6372 213.551 18.6221 213.532 18.6031L212.776 17.8385C212.756 17.8189 212.741 17.7955 212.73 17.7697C212.719 17.7439 212.713 17.7161 212.713 17.6882C212.713 17.6602 212.719 17.6325 212.73 17.6066C212.741 17.5808 212.756 17.5574 212.776 17.5378C213.644 16.7303 214.786 16.2814 215.971 16.2814C217.156 16.2814 218.298 16.7303 219.166 17.5378C219.186 17.5572 219.202 17.5804 219.214 17.6062C219.225 17.632 219.231 17.6597 219.231 17.6878C219.231 17.7442 219.209 17.7984 219.17 17.8385L218.415 18.6031C218.396 18.622 218.374 18.637 218.349 18.6472C218.324 18.6575 218.298 18.6627 218.271 18.6627V18.6627ZM220.011 16.9036C219.985 16.9038 219.959 16.8989 219.935 16.8891C219.911 16.8793 219.889 16.8649 219.871 16.8466C218.818 15.8461 217.422 15.2882 215.97 15.2882C214.518 15.2882 213.122 15.8461 212.069 16.8466C212.051 16.8649 212.029 16.8793 212.005 16.8891C211.981 16.8989 211.955 16.9038 211.929 16.9036C211.902 16.9037 211.876 16.8985 211.851 16.8883C211.826 16.878 211.804 16.863 211.785 16.844L211.031 16.08C211.011 16.0604 210.996 16.0372 210.985 16.0115C210.974 15.9859 210.969 15.9584 210.969 15.9307C210.969 15.9029 210.974 15.8754 210.985 15.8498C210.996 15.8242 211.011 15.8009 211.031 15.7813C212.36 14.5079 214.13 13.797 215.971 13.797C217.812 13.797 219.582 14.5079 220.911 15.7813C220.931 15.8006 220.947 15.8238 220.959 15.8494C220.97 15.8751 220.976 15.9027 220.977 15.9307C220.977 15.9585 220.971 15.9861 220.961 16.0119C220.95 16.0377 220.935 16.061 220.915 16.0807L220.157 16.844C220.138 16.8632 220.115 16.8785 220.09 16.8887C220.065 16.8989 220.038 16.904 220.011 16.9036Z" fill="white"/>
<path d="M207.021 21.0051H206.366C206.192 21.0051 206.026 20.9361 205.903 20.8132C205.78 20.6903 205.711 20.5237 205.711 20.3499V14.6715C205.711 14.4978 205.78 14.3311 205.903 14.2083C206.026 14.0854 206.192 14.0164 206.366 14.0164H207.021C207.195 14.0164 207.362 14.0854 207.485 14.2083C207.607 14.3311 207.677 14.4978 207.677 14.6715V20.3499C207.677 20.5237 207.607 20.6903 207.485 20.8132C207.362 20.9361 207.195 21.0051 207.021 21.0051ZM203.964 21.0051H203.308C203.135 21.0051 202.968 20.9361 202.845 20.8132C202.722 20.6903 202.653 20.5237 202.653 20.3499V16.2007C202.653 16.0269 202.722 15.8603 202.845 15.7374C202.968 15.6146 203.135 15.5455 203.308 15.5455H203.964C204.137 15.5455 204.304 15.6146 204.427 15.7374C204.55 15.8603 204.619 16.0269 204.619 16.2007V20.3499C204.619 20.5236 204.55 20.6901 204.427 20.813C204.304 20.9358 204.138 21.0049 203.964 21.0051H203.964ZM200.906 21.0051H200.251C200.077 21.0051 199.91 20.9361 199.788 20.8132C199.665 20.6903 199.596 20.5237 199.596 20.3499V17.7292C199.596 17.5555 199.665 17.3888 199.788 17.2659C199.91 17.1431 200.077 17.074 200.251 17.074H200.906C201.08 17.074 201.246 17.1431 201.369 17.2659C201.492 17.3888 201.561 17.5555 201.561 17.7292V20.3499C201.561 20.5237 201.492 20.6903 201.369 20.8132C201.246 20.9361 201.08 21.0051 200.906 21.0051ZM197.849 21.0051H197.194C197.02 21.0051 196.853 20.9361 196.73 20.8132C196.608 20.6903 196.539 20.5237 196.539 20.3499V19.0396C196.539 18.8658 196.608 18.6992 196.73 18.5763C196.853 18.4534 197.02 18.3844 197.194 18.3844H197.849C198.023 18.3844 198.189 18.4534 198.312 18.5763C198.435 18.6992 198.504 18.8658 198.504 19.0396V20.3499C198.504 20.5237 198.435 20.6903 198.312 20.8132C198.189 20.9361 198.023 21.0051 197.849 21.0051Z" fill="white"/>
</g>
</g>
<path d="M141.272 258.962C141.272 259.919 140.658 260.325 139.784 259.892C138.909 259.46 138.157 258.902 137.349 258.407C136.065 257.602 134.771 256.807 133.501 255.979C132.382 255.253 132.369 254.751 133.428 253.975C133.92 253.616 133.653 253.187 133.484 252.867C132.534 251.052 131.415 249.362 129.693 248.158C127.383 246.544 124.835 245.666 122.033 246.019C119.231 246.318 116.641 247.654 114.773 249.765C112.391 252.448 111.057 255.573 111.414 259.183C111.783 262.922 113.638 265.783 116.954 267.72C119.027 268.921 121.245 269.32 123.571 269.347C124.716 269.347 124.921 269.571 124.917 270.733C124.917 272.003 124.891 273.274 124.871 274.548C124.871 275.538 124.518 276.029 123.551 275.983C121.929 275.909 120.314 275.724 118.717 275.432C117.627 275.192 116.562 274.855 115.532 274.426C113.237 273.501 111.181 272.069 109.516 270.238C107.686 268.307 106.311 265.991 105.49 263.46C104.692 261.074 104.391 258.551 104.606 256.045C104.85 253.028 105.855 250.123 107.526 247.6C108.893 245.499 110.679 243.703 112.772 242.324C114.865 240.946 117.22 240.014 119.69 239.587C121.985 239.164 124.341 239.202 126.62 239.7C128.817 240.163 130.907 241.035 132.781 242.27C134.686 243.459 136.335 245.015 137.632 246.847C138.27 247.812 138.853 248.811 139.378 249.841C139.596 250.26 139.771 250.402 140.262 250.276C141.124 250.055 141.45 250.342 141.467 251.266C141.497 252.58 141.302 257.714 141.272 258.962Z" fill="white"/>
<path d="M104.511 273.106C104.573 272.116 105.227 271.786 106.042 272.314C108.213 273.678 110.384 275.041 112.553 276.402C113.249 276.841 113.355 277.58 112.678 278.013C112.114 278.372 112.269 278.739 112.454 279.115C113.31 281.002 114.621 282.647 116.269 283.903C118.291 285.385 120.559 286.26 123.047 286.157C127.363 285.982 130.597 283.92 132.802 280.217C134.214 277.835 134.973 275.3 134.551 272.528C134.052 269.228 132.472 266.588 129.643 264.734C127.576 263.391 125.144 262.722 122.68 262.82C121.36 262.843 121.11 262.595 121.129 261.311C121.149 260.028 121.159 258.767 121.186 257.497C121.171 257.315 121.196 257.133 121.259 256.963C121.322 256.792 121.421 256.637 121.549 256.508C121.677 256.379 121.831 256.28 122.002 256.216C122.172 256.153 122.354 256.127 122.535 256.14C125.329 256.076 128.102 256.63 130.657 257.764C133.387 258.988 135.781 260.855 137.633 263.206C138.816 264.701 139.747 266.38 140.388 268.175C141.433 271.003 141.76 274.045 141.339 277.029C140.937 279.874 139.877 282.586 138.243 284.949C137.042 286.715 135.529 288.247 133.778 289.47C132.516 290.308 131.173 291.016 129.769 291.586C126.631 292.935 123.301 293.038 120.004 292.52C118.354 292.256 116.731 291.51 115.143 290.87C112.882 289.92 110.903 288.404 109.398 286.467C108.345 285.147 107.517 283.659 106.639 282.217C106.405 281.831 106.309 281.593 105.784 281.837C104.814 282.276 104.217 281.837 104.21 280.791C104.187 279.547 104.425 274.426 104.511 273.106Z" fill="white"/>
</g>
<rect x="123" y="344" width="287" height="76" rx="16" fill="#D9D9D9"/>
<path d="M158.218 390.938L158.101 391.679H158.101L158.218 390.938ZM154.062 386.782L154.802 386.665L154.062 386.782ZM171.938 386.782L172.679 386.899V386.899L171.938 386.782ZM167.782 390.938L167.899 391.679H167.899L167.782 390.938ZM171.6 380.55C171.351 380.218 170.881 380.152 170.55 380.4C170.219 380.649 170.152 381.119 170.401 381.45L171.6 380.55ZM155.599 381.45C155.848 381.119 155.781 380.649 155.45 380.4C155.119 380.152 154.649 380.218 154.4 380.55L155.599 381.45ZM163.75 373C163.75 372.586 163.414 372.25 163 372.25C162.586 372.25 162.25 372.586 162.25 373H163.75ZM159.588 382.534C159.33 382.209 158.859 382.155 158.534 382.412C158.209 382.67 158.155 383.141 158.412 383.466L159.588 382.534ZM160.398 384.763L159.81 385.229L160.398 384.763ZM165.602 384.763L165.014 384.297L165.602 384.763ZM167.588 383.466C167.845 383.141 167.791 382.67 167.466 382.412C167.141 382.155 166.67 382.209 166.412 382.534L167.588 383.466ZM162.749 386.98L162.631 387.721L162.631 387.721L162.749 386.98ZM163.251 386.98L163.369 387.721L163.369 387.721L163.251 386.98ZM171.25 384V385H172.75V384H171.25ZM166 390.25H160V391.75H166V390.25ZM154.75 385V384H153.25V385H154.75ZM160 390.25C159.042 390.25 158.651 390.248 158.335 390.198L158.101 391.679C158.562 391.752 159.1 391.75 160 391.75V390.25ZM153.25 385C153.25 385.9 153.248 386.438 153.321 386.899L154.802 386.665C154.752 386.349 154.75 385.958 154.75 385H153.25ZM158.335 390.198C156.517 389.91 155.09 388.483 154.802 386.665L153.321 386.899C153.71 389.36 155.64 391.29 158.101 391.679L158.335 390.198ZM171.25 385C171.25 385.958 171.248 386.349 171.198 386.665L172.679 386.899C172.752 386.438 172.75 385.9 172.75 385H171.25ZM166 391.75C166.9 391.75 167.438 391.752 167.899 391.679L167.665 390.198C167.349 390.248 166.958 390.25 166 390.25V391.75ZM171.198 386.665C170.91 388.483 169.483 389.91 167.665 390.198L167.899 391.679C170.36 391.29 172.29 389.36 172.679 386.899L171.198 386.665ZM172.75 384C172.75 382.706 172.322 381.511 171.6 380.55L170.401 381.45C170.934 382.161 171.25 383.042 171.25 384H172.75ZM154.75 384C154.75 383.042 155.066 382.161 155.599 381.45L154.4 380.55C153.678 381.511 153.25 382.706 153.25 384H154.75ZM162.25 373V386H163.75V373H162.25ZM158.412 383.466L159.81 385.229L160.986 384.297L159.588 382.534L158.412 383.466ZM166.19 385.229L167.588 383.466L166.412 382.534L165.014 384.297L166.19 385.229ZM159.81 385.229C160.356 385.918 160.805 386.485 161.206 386.887C161.61 387.293 162.058 387.629 162.631 387.721L162.867 386.239C162.761 386.223 162.591 386.153 162.268 385.829C161.942 385.501 161.554 385.014 160.986 384.297L159.81 385.229ZM165.014 384.297C164.446 385.014 164.058 385.501 163.732 385.829C163.409 386.153 163.239 386.223 163.133 386.239L163.369 387.721C163.942 387.629 164.39 387.293 164.794 386.887C165.195 386.485 165.644 385.918 166.19 385.229L165.014 384.297ZM162.631 387.721C162.753 387.74 162.877 387.75 163 387.75V386.25C162.956 386.25 162.912 386.247 162.867 386.239L162.631 387.721ZM163 387.75C163.123 387.75 163.247 387.74 163.369 387.721L163.133 386.239C163.088 386.247 163.044 386.25 163 386.25V387.75ZM162.25 386V387H163.75V386H162.25Z" fill="#2D264B"/>
<path d="M195.68 391C200.672 391 204.032 387.712 204.032 382.984C204.032 378.304 200.672 374.992 195.656 374.992H189.704V391H195.68ZM195.656 388.528H192.512V377.464H195.68C199.232 377.464 201.152 379.912 201.152 382.984C201.152 386.032 199.136 388.528 195.656 388.528ZM211.927 391.288C215.623 391.288 217.879 388.504 217.879 385.192C217.879 381.856 215.623 379.12 211.927 379.12C208.231 379.12 205.975 381.856 205.975 385.192C205.975 388.504 208.231 391.288 211.927 391.288ZM211.927 389.056C209.791 389.056 208.591 387.256 208.591 385.192C208.591 383.152 209.791 381.352 211.927 381.352C214.087 381.352 215.263 383.152 215.263 385.192C215.263 387.256 214.087 389.056 211.927 389.056ZM233.22 391L236.82 379.408H234.18L231.732 387.832L228.996 379.408H226.764L224.004 387.832L221.556 379.408H218.94L222.54 391H225.18L227.868 382.504L230.58 391H233.22ZM248.938 391V382.84C248.938 380.464 247.69 379.12 245.194 379.12C243.37 379.12 241.858 380.056 241.09 380.968V379.408H238.57V391H241.09V382.888C241.69 382.12 242.794 381.352 244.066 381.352C245.482 381.352 246.418 381.928 246.418 383.752V391H248.938ZM254.73 391V374.992H252.21V391H254.73ZM263.255 391.288C266.951 391.288 269.207 388.504 269.207 385.192C269.207 381.856 266.951 379.12 263.255 379.12C259.559 379.12 257.303 381.856 257.303 385.192C257.303 388.504 259.559 391.288 263.255 391.288ZM263.255 389.056C261.119 389.056 259.919 387.256 259.919 385.192C259.919 383.152 261.119 381.352 263.255 381.352C265.415 381.352 266.591 383.152 266.591 385.192C266.591 387.256 265.415 389.056 263.255 389.056ZM281.404 391V383.296C281.404 380.2 279.148 379.12 276.556 379.12C274.708 379.12 273.028 379.696 271.684 380.992L272.74 382.744C273.724 381.736 274.876 381.256 276.172 381.256C277.756 381.256 278.884 382.072 278.884 383.416V385.144C278.02 384.16 276.7 383.656 275.116 383.656C273.22 383.656 271.108 384.76 271.108 387.448C271.108 389.992 273.244 391.288 275.116 391.288C276.652 391.288 278.02 390.736 278.884 389.728V391H281.404ZM276.124 389.56C274.708 389.56 273.628 388.744 273.628 387.472C273.628 386.224 274.708 385.384 276.124 385.384C277.204 385.384 278.284 385.792 278.884 386.584V388.36C278.284 389.152 277.204 389.56 276.124 389.56ZM295.351 391V374.992H292.831V381.016C291.919 379.768 290.575 379.12 289.111 379.12C286.135 379.12 283.975 381.448 283.975 385.192C283.975 389.032 286.159 391.288 289.111 391.288C290.623 391.288 291.943 390.568 292.831 389.416V391H295.351ZM289.855 389.056C287.839 389.056 286.567 387.448 286.567 385.192C286.567 382.96 287.839 381.352 289.855 381.352C291.031 381.352 292.279 382.048 292.831 382.912V387.496C292.279 388.36 291.031 389.056 289.855 389.056ZM308.308 391.288C309.46 391.288 310.204 390.952 310.66 390.544L310.06 388.624C309.868 388.84 309.436 389.056 308.956 389.056C308.236 389.056 307.852 388.456 307.852 387.664V381.592H310.204V379.408H307.852V376.24H305.332V379.408H303.412V381.592H305.332V388.288C305.332 390.232 306.34 391.288 308.308 391.288ZM322.836 391V382.792C322.836 380.416 321.588 379.12 319.092 379.12C317.268 379.12 315.78 380.056 315.012 380.968V374.992H312.492V391H315.012V382.888C315.588 382.12 316.692 381.352 317.988 381.352C319.404 381.352 320.316 381.88 320.316 383.704V391H322.836ZM331.485 391.288C333.309 391.288 335.013 390.688 336.189 389.584L335.037 387.928C334.197 388.768 332.877 389.224 331.725 389.224C329.541 389.224 328.245 387.76 328.053 386.032H336.981V385.408C336.981 381.76 334.773 379.12 331.293 379.12C327.861 379.12 325.413 381.832 325.413 385.192C325.413 388.864 327.981 391.288 331.485 391.288ZM334.557 384.232H328.029C328.125 382.84 329.133 381.184 331.269 381.184C333.549 381.184 334.485 382.864 334.557 384.232ZM355.279 391V383.296C355.279 380.2 353.023 379.12 350.431 379.12C348.583 379.12 346.903 379.696 345.559 380.992L346.615 382.744C347.599 381.736 348.751 381.256 350.047 381.256C351.631 381.256 352.759 382.072 352.759 383.416V385.144C351.895 384.16 350.575 383.656 348.991 383.656C347.095 383.656 344.983 384.76 344.983 387.448C344.983 389.992 347.119 391.288 348.991 391.288C350.527 391.288 351.895 390.736 352.759 389.728V391H355.279ZM349.999 389.56C348.583 389.56 347.503 388.744 347.503 387.472C347.503 386.224 348.583 385.384 349.999 385.384C351.079 385.384 352.159 385.792 352.759 386.584V388.36C352.159 389.152 351.079 389.56 349.999 389.56ZM364.786 391.288C367.786 391.288 369.922 389.008 369.922 385.192C369.922 381.376 367.786 379.12 364.786 379.12C363.274 379.12 361.93 379.84 361.066 380.992V379.408H358.546V395.416H361.066V389.392C362.026 390.616 363.322 391.288 364.786 391.288ZM364.042 389.056C362.866 389.056 361.618 388.336 361.066 387.472V382.888C361.642 382.024 362.866 381.352 364.042 381.352C366.034 381.352 367.33 382.936 367.33 385.192C367.33 387.448 366.034 389.056 364.042 389.056ZM378.685 391.288C381.685 391.288 383.821 389.008 383.821 385.192C383.821 381.376 381.685 379.12 378.685 379.12C377.173 379.12 375.829 379.84 374.965 380.992V379.408H372.445V395.416H374.965V389.392C375.925 390.616 377.221 391.288 378.685 391.288ZM377.941 389.056C376.765 389.056 375.517 388.336 374.965 387.472V382.888C375.541 382.024 376.765 381.352 377.941 381.352C379.933 381.352 381.229 382.936 381.229 385.192C381.229 387.448 379.933 389.056 377.941 389.056Z" fill="black"/>
<defs>
<linearGradient id="paint0_linear_564_11052" x1="11.7931" y1="-8.51535e-06" x2="495.966" y2="1325.41" gradientUnits="userSpaceOnUse">
<stop stop-color="#002F46"/>
<stop offset="1" stop-color="#00ABFF"/>
</linearGradient>
<clipPath id="clip0_564_11052">
<rect width="245.69" height="532" rx="15" fill="white"/>
</clipPath>
<clipPath id="clip1_564_11052">
<rect width="252.005" height="24.5369" fill="white"/>
</clipPath>
<clipPath id="clip2_564_11052">
<rect width="252.005" height="14.0542" fill="white" transform="translate(0 10.4828)"/>
</clipPath>
</defs>
</svg>
