<svg width="28" height="21" viewBox="0 0 28 21" fill="none" xmlns="http://www.w3.org/2000/svg">
<rect y="0.5" width="28" height="20" rx="2" fill="white"/>
<mask id="mask0_283_11483" style="mask-type:luminance" maskUnits="userSpaceOnUse" x="0" y="0" width="28" height="21">
<rect y="0.5" width="28" height="20" rx="2" fill="white"/>
</mask>
<g mask="url(#mask0_283_11483)">
<path fill-rule="evenodd" clip-rule="evenodd" d="M28 0.5H0V1.83333H28V0.5ZM28 3.16667H0V4.5H28V3.16667ZM0 5.83333H28V7.16667H0V5.83333ZM28 8.5H0V9.83333H28V8.5ZM0 11.1667H28V12.5H0V11.1667ZM28 13.8333H0V15.1667H28V13.8333ZM0 16.5H28V17.8333H0V16.5ZM28 19.1667H0V20.5H28V19.1667Z" fill="#D02F44"/>
<rect y="0.5" width="12" height="9.33333" fill="#46467F"/>
<g filter="url(#filter0_d_283_11483)">
<path fill-rule="evenodd" clip-rule="evenodd" d="M2.66659 2.49999C2.66659 2.86818 2.36811 3.16666 1.99992 3.16666C1.63173 3.16666 1.33325 2.86818 1.33325 2.49999C1.33325 2.13181 1.63173 1.83333 1.99992 1.83333C2.36811 1.83333 2.66659 2.13181 2.66659 2.49999ZM5.33325 2.49999C5.33325 2.86818 5.03478 3.16666 4.66659 3.16666C4.2984 3.16666 3.99992 2.86818 3.99992 2.49999C3.99992 2.13181 4.2984 1.83333 4.66659 1.83333C5.03478 1.83333 5.33325 2.13181 5.33325 2.49999ZM7.33325 3.16666C7.70144 3.16666 7.99992 2.86818 7.99992 2.49999C7.99992 2.13181 7.70144 1.83333 7.33325 1.83333C6.96506 1.83333 6.66659 2.13181 6.66659 2.49999C6.66659 2.86818 6.96506 3.16666 7.33325 3.16666ZM10.6666 2.49999C10.6666 2.86818 10.3681 3.16666 9.99992 3.16666C9.63173 3.16666 9.33325 2.86818 9.33325 2.49999C9.33325 2.13181 9.63173 1.83333 9.99992 1.83333C10.3681 1.83333 10.6666 2.13181 10.6666 2.49999ZM3.33325 4.49999C3.70144 4.49999 3.99992 4.20152 3.99992 3.83333C3.99992 3.46514 3.70144 3.16666 3.33325 3.16666C2.96506 3.16666 2.66659 3.46514 2.66659 3.83333C2.66659 4.20152 2.96506 4.49999 3.33325 4.49999ZM6.66659 3.83333C6.66659 4.20152 6.36811 4.49999 5.99992 4.49999C5.63173 4.49999 5.33325 4.20152 5.33325 3.83333C5.33325 3.46514 5.63173 3.16666 5.99992 3.16666C6.36811 3.16666 6.66659 3.46514 6.66659 3.83333ZM8.66658 4.49999C9.03477 4.49999 9.33325 4.20152 9.33325 3.83333C9.33325 3.46514 9.03477 3.16666 8.66658 3.16666C8.2984 3.16666 7.99992 3.46514 7.99992 3.83333C7.99992 4.20152 8.2984 4.49999 8.66658 4.49999ZM10.6666 5.16666C10.6666 5.53485 10.3681 5.83333 9.99992 5.83333C9.63173 5.83333 9.33325 5.53485 9.33325 5.16666C9.33325 4.79847 9.63173 4.49999 9.99992 4.49999C10.3681 4.49999 10.6666 4.79847 10.6666 5.16666ZM7.33325 5.83333C7.70144 5.83333 7.99992 5.53485 7.99992 5.16666C7.99992 4.79847 7.70144 4.49999 7.33325 4.49999C6.96506 4.49999 6.66659 4.79847 6.66659 5.16666C6.66659 5.53485 6.96506 5.83333 7.33325 5.83333ZM5.33325 5.16666C5.33325 5.53485 5.03478 5.83333 4.66659 5.83333C4.2984 5.83333 3.99992 5.53485 3.99992 5.16666C3.99992 4.79847 4.2984 4.49999 4.66659 4.49999C5.03478 4.49999 5.33325 4.79847 5.33325 5.16666ZM1.99992 5.83333C2.36811 5.83333 2.66659 5.53485 2.66659 5.16666C2.66659 4.79847 2.36811 4.49999 1.99992 4.49999C1.63173 4.49999 1.33325 4.79847 1.33325 5.16666C1.33325 5.53485 1.63173 5.83333 1.99992 5.83333ZM3.99992 6.49999C3.99992 6.86818 3.70144 7.16666 3.33325 7.16666C2.96506 7.16666 2.66659 6.86818 2.66659 6.49999C2.66659 6.1318 2.96506 5.83333 3.33325 5.83333C3.70144 5.83333 3.99992 6.1318 3.99992 6.49999ZM5.99992 7.16666C6.36811 7.16666 6.66659 6.86818 6.66659 6.49999C6.66659 6.1318 6.36811 5.83333 5.99992 5.83333C5.63173 5.83333 5.33325 6.1318 5.33325 6.49999C5.33325 6.86818 5.63173 7.16666 5.99992 7.16666ZM9.33325 6.49999C9.33325 6.86818 9.03477 7.16666 8.66658 7.16666C8.2984 7.16666 7.99992 6.86818 7.99992 6.49999C7.99992 6.1318 8.2984 5.83333 8.66658 5.83333C9.03477 5.83333 9.33325 6.1318 9.33325 6.49999ZM9.99992 8.5C10.3681 8.5 10.6666 8.20152 10.6666 7.83333C10.6666 7.46514 10.3681 7.16666 9.99992 7.16666C9.63173 7.16666 9.33325 7.46514 9.33325 7.83333C9.33325 8.20152 9.63173 8.5 9.99992 8.5ZM7.99992 7.83333C7.99992 8.20152 7.70144 8.5 7.33325 8.5C6.96506 8.5 6.66659 8.20152 6.66659 7.83333C6.66659 7.46514 6.96506 7.16666 7.33325 7.16666C7.70144 7.16666 7.99992 7.46514 7.99992 7.83333ZM4.66659 8.5C5.03478 8.5 5.33325 8.20152 5.33325 7.83333C5.33325 7.46514 5.03478 7.16666 4.66659 7.16666C4.2984 7.16666 3.99992 7.46514 3.99992 7.83333C3.99992 8.20152 4.2984 8.5 4.66659 8.5ZM2.66659 7.83333C2.66659 8.20152 2.36811 8.5 1.99992 8.5C1.63173 8.5 1.33325 8.20152 1.33325 7.83333C1.33325 7.46514 1.63173 7.16666 1.99992 7.16666C2.36811 7.16666 2.66659 7.46514 2.66659 7.83333Z" fill="url(#paint0_linear_283_11483)"/>
</g>
</g>
<defs>
<filter id="filter0_d_283_11483" x="1.33325" y="1.83333" width="9.33325" height="7.66667" filterUnits="userSpaceOnUse" color-interpolation-filters="sRGB">
<feFlood flood-opacity="0" result="BackgroundImageFix"/>
<feColorMatrix in="SourceAlpha" type="matrix" values="0 0 0 0 0 0 0 0 0 0 0 0 0 0 0 0 0 0 127 0" result="hardAlpha"/>
<feOffset dy="1"/>
<feColorMatrix type="matrix" values="0 0 0 0 0 0 0 0 0 0 0 0 0 0 0 0 0 0 0.06 0"/>
<feBlend mode="normal" in2="BackgroundImageFix" result="effect1_dropShadow_283_11483"/>
<feBlend mode="normal" in="SourceGraphic" in2="effect1_dropShadow_283_11483" result="shape"/>
</filter>
<linearGradient id="paint0_linear_283_11483" x1="1.33325" y1="1.83333" x2="1.33325" y2="8.49999" gradientUnits="userSpaceOnUse">
<stop stop-color="white"/>
<stop offset="1" stop-color="#F0F0F0"/>
</linearGradient>
</defs>
</svg>
