<svg width="216" height="216" viewBox="0 0 216 216" fill="none" xmlns="http://www.w3.org/2000/svg">
<path d="M67.5 10C67.5 4.47715 63.0228 0 57.5 0H10C4.47715 0 0 4.47715 0 10V57.5C0 63.0229 4.47715 67.5 10 67.5H57.5C63.0229 67.5 67.5 63.0228 67.5 57.5V10ZM54 44C54 49.5229 49.5228 54 44 54H23.5C17.9772 54 13.5 49.5228 13.5 44V23.5C13.5 17.9772 17.9772 13.5 23.5 13.5H44C49.5229 13.5 54 17.9772 54 23.5V44Z" fill="black"/>
<path d="M27 33.75C27 37.4779 30.0221 40.5 33.75 40.5C37.4779 40.5 40.5 37.4779 40.5 33.75C40.5 30.0221 37.4779 27 33.75 27C30.0221 27 27 30.0221 27 33.75Z" fill="black"/>
<path d="M158.5 0C152.977 0 148.5 4.47715 148.5 10V57.5C148.5 63.0229 152.977 67.5 158.5 67.5H206C211.523 67.5 216 63.0228 216 57.5V10C216 4.47715 211.523 0 206 0H158.5ZM202.5 44C202.5 49.5229 198.023 54 192.5 54H172C166.477 54 162 49.5228 162 44V23.5C162 17.9772 166.477 13.5 172 13.5H192.5C198.023 13.5 202.5 17.9772 202.5 23.5V44Z" fill="black"/>
<path d="M175.5 33.75C175.5 37.4779 178.522 40.5 182.25 40.5C185.978 40.5 189 37.4779 189 33.75C189 30.0221 185.978 27 182.25 27C178.522 27 175.5 30.0221 175.5 33.75Z" fill="black"/>
<path d="M0 206C0 211.523 4.47715 216 10 216H57.5C63.0229 216 67.5 211.523 67.5 206V158.5C67.5 152.977 63.0228 148.5 57.5 148.5H10C4.47715 148.5 0 152.977 0 158.5V206ZM13.5 172C13.5 166.477 17.9772 162 23.5 162H44C49.5229 162 54 166.477 54 172V192.5C54 198.023 49.5228 202.5 44 202.5H23.5C17.9772 202.5 13.5 198.023 13.5 192.5V172Z" fill="black"/>
<path d="M27 182.25C27 185.978 30.0221 189 33.75 189C37.4779 189 40.5 185.978 40.5 182.25C40.5 178.522 37.4779 175.5 33.75 175.5C30.0221 175.5 27 178.522 27 182.25Z" fill="black"/>
<path d="M128.25 0H114.75C111.022 0 108 3.02208 108 6.75C108 10.4779 111.022 13.5 114.75 13.5H128.25C131.978 13.5 135 10.4779 135 6.75C135 3.02208 131.978 0 128.25 0Z" fill="black"/>
<path d="M108 47.25C108 50.9779 111.022 54 114.75 54C118.478 54 121.5 50.9779 121.5 47.25C121.5 43.5221 124.522 40.5 128.25 40.5C131.978 40.5 135 37.4779 135 33.75C135 30.0221 131.978 27 128.25 27H101.25C97.5221 27 94.5 23.9779 94.5 20.25C94.5 16.5221 91.4779 13.5 87.75 13.5C84.0221 13.5 81 16.5221 81 20.25V27V33.75C81 37.4779 84.0221 40.5 87.75 40.5H101.25C104.978 40.5 108 43.5221 108 47.25Z" fill="black"/>
<path d="M81 60.75C81 64.4779 84.0221 67.5 87.75 67.5C91.4779 67.5 94.5 64.4779 94.5 60.75C94.5 57.0221 91.4779 54 87.75 54C84.0221 54 81 57.0221 81 60.75Z" fill="black"/>
<path d="M135 74.25C135 70.5221 131.978 67.5 128.25 67.5C124.522 67.5 121.5 70.5221 121.5 74.25C121.5 77.9779 118.478 81 114.75 81H87.75C84.0221 81 81 84.0221 81 87.75C81 91.4779 84.0221 94.5 87.75 94.5H125C130.523 94.5 135 90.0228 135 84.5V74.25Z" fill="black"/>
<path d="M13.5 128.25C13.5 124.522 16.5221 121.5 20.25 121.5C23.9779 121.5 27 118.478 27 114.75C27 111.022 23.9779 108 20.25 108C16.5221 108 13.5 104.978 13.5 101.25V87.75C13.5 84.0221 10.4779 81 6.75 81C3.02208 81 0 84.0221 0 87.75V128.25C0 131.978 3.02208 135 6.75 135C10.4779 135 13.5 131.978 13.5 128.25Z" fill="black"/>
<path d="M27 87.75C27 91.4779 30.0221 94.5 33.75 94.5C37.4779 94.5 40.5 91.4779 40.5 87.75C40.5 84.0221 37.4779 81 33.75 81C30.0221 81 27 84.0221 27 87.75Z" fill="black"/>
<path d="M81 128.25C81 131.978 84.0221 135 87.75 135H101.25C104.978 135 108 131.978 108 128.25C108 124.522 104.978 121.5 101.25 121.5C97.5221 121.5 94.5 118.478 94.5 114.75C94.5 111.022 91.4779 108 87.75 108H77.5C71.9772 108 67.5 103.523 67.5 98V87.75C67.5 84.0221 64.4779 81 60.75 81C57.0221 81 54 84.0221 54 87.75V101.25C54 104.978 50.9779 108 47.25 108C43.5221 108 40.5 111.022 40.5 114.75V128.25C40.5 131.978 43.5221 135 47.25 135C50.9779 135 54 131.978 54 128.25C54 124.522 57.0221 121.5 60.75 121.5H67.5H74.25C77.9779 121.5 81 124.522 81 128.25Z" fill="black"/>
<path d="M135 128.25V114.75C135 111.022 131.978 108 128.25 108C124.522 108 121.5 111.022 121.5 114.75V128.25C121.5 131.978 124.522 135 128.25 135C131.978 135 135 131.978 135 128.25Z" fill="black"/>
<path d="M121.5 158.5C121.5 152.977 117.023 148.5 111.5 148.5H87.75C84.0221 148.5 81 151.522 81 155.25C81 158.978 84.0221 162 87.75 162H98C103.523 162 108 166.477 108 172V192.5C108 198.023 103.523 202.5 98 202.5H87.75C84.0221 202.5 81 205.522 81 209.25C81 212.978 84.0221 216 87.75 216H114.75C118.478 216 121.5 212.978 121.5 209.25C121.5 205.522 124.522 202.5 128.25 202.5H141.75C145.478 202.5 148.5 199.478 148.5 195.75C148.5 192.022 145.478 189 141.75 189H131.5C125.977 189 121.5 184.523 121.5 179V158.5Z" fill="black"/>
<path d="M81 182.25C81 185.978 84.0221 189 87.75 189C91.4779 189 94.5 185.978 94.5 182.25C94.5 178.522 91.4779 175.5 87.75 175.5C84.0221 175.5 81 178.522 81 182.25Z" fill="black"/>
<path d="M148.5 168.75V155.25C148.5 151.522 145.478 148.5 141.75 148.5C138.022 148.5 135 151.522 135 155.25V168.75C135 172.478 138.022 175.5 141.75 175.5C145.478 175.5 148.5 172.478 148.5 168.75Z" fill="black"/>
<path d="M202.5 182.25C202.5 178.522 199.478 175.5 195.75 175.5H172C166.477 175.5 162 179.977 162 185.5V209.25C162 212.978 165.022 216 168.75 216C172.478 216 175.5 212.978 175.5 209.25V199C175.5 193.477 179.977 189 185.5 189H195.75C199.478 189 202.5 185.978 202.5 182.25Z" fill="black"/>
<path d="M209.25 202.5H195.75C192.022 202.5 189 205.522 189 209.25C189 212.978 192.022 216 195.75 216H209.25C212.978 216 216 212.978 216 209.25C216 205.522 212.978 202.5 209.25 202.5Z" fill="black"/>
<path d="M202.5 155.25C202.5 158.978 205.522 162 209.25 162C212.978 162 216 158.978 216 155.25C216 151.522 212.978 148.5 209.25 148.5C205.522 148.5 202.5 151.522 202.5 155.25Z" fill="black"/>
<path d="M162 155.25C162 158.978 165.022 162 168.75 162C172.478 162 175.5 158.978 175.5 155.25V131.5C175.5 125.977 171.023 121.5 165.5 121.5H155.25C151.522 121.5 148.5 124.522 148.5 128.25C148.5 131.978 151.522 135 155.25 135C158.978 135 162 138.022 162 141.75V155.25Z" fill="black"/>
<path d="M189 87.75C189 91.4779 185.978 94.5 182.25 94.5C178.522 94.5 175.5 91.4779 175.5 87.75C175.5 84.0221 172.478 81 168.75 81C165.022 81 162 84.0221 162 87.75C162 91.4779 158.978 94.5 155.25 94.5C151.522 94.5 148.5 97.5221 148.5 101.25C148.5 104.978 151.522 108 155.25 108H195.75C199.478 108 202.5 104.978 202.5 101.25C202.5 97.5221 205.522 94.5 209.25 94.5C212.978 94.5 216 91.4779 216 87.75C216 84.0221 212.978 81 209.25 81H195.75C192.022 81 189 84.0221 189 87.75Z" fill="black"/>
<path d="M209.25 121.5H195.75C192.022 121.5 189 124.522 189 128.25C189 131.978 192.022 135 195.75 135H209.25C212.978 135 216 131.978 216 128.25C216 124.522 212.978 121.5 209.25 121.5Z" fill="black"/>
</svg>
