<svg width="20" height="28" viewBox="0 0 20 28" fill="none" xmlns="http://www.w3.org/2000/svg">
<path d="M19.628 10.1323C19.628 10.6251 19.312 10.834 18.8634 10.6115C18.4149 10.3889 18.0241 10.1017 17.6095 9.84687C16.9469 9.43229 16.2825 9.0228 15.6283 8.59633C15.0523 8.22253 15.0456 7.96427 15.5893 7.56498C15.8441 7.37978 15.7065 7.1589 15.6181 6.99409C15.1288 6.05958 14.5545 5.18964 13.6676 4.56947C12.4782 3.73861 11.1665 3.28664 9.72226 3.46844C8.27954 3.62322 6.94654 4.31093 5.98424 5.39693C4.75749 6.7783 4.07275 8.38735 4.25625 10.2462C4.44485 12.1713 5.39974 13.6444 7.10904 14.6417C8.17438 15.2602 9.31787 15.4658 10.5072 15.4794C11.0985 15.4794 11.2022 15.5949 11.2022 16.193C11.2022 16.8472 11.1886 17.5013 11.1767 18.1572C11.1767 18.6669 10.9949 18.9201 10.4971 18.8963C9.66131 18.8579 8.82913 18.7631 8.00617 18.6125C7.43828 18.4874 6.88272 18.3117 6.34615 18.0875C5.13808 17.6271 4.13732 16.8574 3.25039 15.9314C2.30811 14.9367 1.59939 13.7444 1.17578 12.4414C0.765765 11.213 0.610816 9.91388 0.720421 8.62352C0.847836 7.07075 1.36503 5.57524 2.22412 4.27551C2.92843 3.19397 3.8483 2.26937 4.92622 1.55953C6.00414 0.849692 7.21691 0.369883 8.48871 0.150099C9.67011 -0.0678978 10.8831 -0.0482646 12.0568 0.207863C13.1872 0.446657 14.2627 0.895647 15.2274 1.53147C16.2083 2.14323 17.0574 2.94439 17.725 3.88812C18.054 4.38414 18.3541 4.89869 18.6239 5.42921C18.7377 5.645 18.8278 5.71806 19.0809 5.65349C19.5244 5.53965 19.6926 5.68748 19.6994 6.16322C19.7385 6.84626 19.6399 9.49006 19.628 10.1323Z" fill="white"/>
<path d="M0.168227 17.4147C0.20051 16.905 0.535236 16.7351 0.956613 17.0069C2.07236 17.7092 3.18923 18.4109 4.30724 19.1121C4.66745 19.3381 4.72182 19.7187 4.3718 19.9413C4.08126 20.1265 4.16282 20.3151 4.25797 20.5088C4.69792 21.4804 5.37225 22.3275 6.22043 22.9742C7.26198 23.7371 8.42926 24.1873 9.71038 24.1347C11.9328 24.0446 13.5979 22.9827 14.7329 21.0763C15.4601 19.8495 15.8509 18.5446 15.6352 17.1174C15.3769 15.4183 14.563 14.059 13.1086 13.1041C12.0442 12.4129 10.7917 12.0686 9.52348 12.1186C8.84384 12.1305 8.71471 12.0031 8.7232 11.3421C8.7317 10.6812 8.7402 10.0321 8.7521 9.37794C8.74471 9.2845 8.75764 9.19059 8.79001 9.10262C8.82238 9.01466 8.87342 8.93473 8.93962 8.86837C9.00581 8.80202 9.0856 8.7508 9.17348 8.71821C9.26136 8.68562 9.35527 8.67245 9.44872 8.67961C10.8871 8.64675 12.315 8.93222 13.6302 9.51558C15.0341 10.1468 16.2647 11.1081 17.217 12.3174C17.8259 13.0876 18.3051 13.9519 18.6358 14.8763C19.1732 16.332 19.3408 17.8984 19.1234 19.4349C18.9169 20.8995 18.3718 22.2957 17.5314 23.5128C16.9123 24.422 16.1327 25.2108 15.2308 25.8405C14.5794 26.2753 13.8861 26.6436 13.1613 26.9399C11.5437 27.6348 9.83102 27.6875 8.13362 27.4207C7.27387 27.2848 6.44641 26.9008 5.62914 26.5712C4.46526 26.0822 3.44703 25.3016 2.6727 24.3046C2.13069 23.6249 1.70252 22.8586 1.25055 22.1161C1.12992 21.9173 1.08065 21.795 0.810493 21.9207C0.310957 22.1467 0.00511507 21.9207 1.77646e-05 21.3821C-0.00168134 20.7313 0.118953 18.0943 0.168227 17.4147Z" fill="white"/>
</svg>
