<svg width="16" height="17" viewBox="0 0 16 17" fill="none" xmlns="http://www.w3.org/2000/svg">
<path d="M3.31618 13.6848L3.605 13.2873L3.31618 13.6848ZM2.59145 12.9601L2.98899 12.6713L2.59145 12.9601ZM13.1333 12.9601L12.7358 12.6713L13.1333 12.9601ZM12.4086 13.6848L12.1197 13.2873L12.4086 13.6848ZM12.4086 3.14297L12.1197 3.5405L12.4086 3.14297ZM13.1333 3.86769L12.7358 4.15652L13.1333 3.86769ZM3.31618 3.14297L3.605 3.5405L3.31618 3.14297ZM2.59145 3.86769L2.98899 4.15652L2.59145 3.86769ZM7.37099 11.0346C7.37099 11.306 7.59099 11.526 7.86237 11.526C8.13375 11.526 8.35375 11.306 8.35375 11.0346H7.37099ZM4.89268 7.54384C4.70164 7.73659 4.70303 8.04771 4.89578 8.23875C5.08853 8.42979 5.39965 8.4284 5.59069 8.23565L4.89268 7.54384ZM6.15751 6.96571L6.50652 7.31161L6.15751 6.96571ZM9.56723 6.96571L9.91624 6.6198H9.91624L9.56723 6.96571ZM10.1341 8.23565C10.3251 8.4284 10.6362 8.42979 10.829 8.23875C11.0217 8.04772 11.0231 7.73659 10.8321 7.54384L10.1341 8.23565ZM7.69814 5.80362L7.63601 5.31618L7.63601 5.31619L7.69814 5.80362ZM8.0266 5.80362L8.08873 5.31619L8.08873 5.31618L8.0266 5.80362ZM7.86237 5.7932V5.30182V5.7932ZM7.86237 13.8191C6.62307 13.8191 5.73306 13.8184 5.04385 13.7437C4.36384 13.67 3.93783 13.5291 3.605 13.2873L3.02735 14.0823C3.55563 14.4662 4.17437 14.638 4.93799 14.7208C5.69243 14.8025 6.64496 14.8018 7.86237 14.8018V13.8191ZM1.47444 8.41389C1.47444 9.6313 1.47377 10.5838 1.5555 11.3383C1.63824 12.1019 1.8101 12.7206 2.19392 13.2489L2.98899 12.6713C2.74717 12.3384 2.60622 11.9124 2.53255 11.2324C2.45787 10.5432 2.4572 9.65319 2.4572 8.41389H1.47444ZM3.605 13.2873C3.36862 13.1155 3.16073 12.9076 2.98899 12.6713L2.19392 13.2489C2.42628 13.5687 2.70753 13.85 3.02735 14.0823L3.605 13.2873ZM13.2675 8.41389C13.2675 9.65319 13.2669 10.5432 13.1922 11.2324C13.1185 11.9124 12.9776 12.3384 12.7358 12.6713L13.5308 13.2489C13.9146 12.7206 14.0865 12.1019 14.1692 11.3383C14.251 10.5838 14.2503 9.6313 14.2503 8.41389H13.2675ZM7.86237 14.8018C9.07979 14.8018 10.0323 14.8025 10.7867 14.7208C11.5504 14.638 12.1691 14.4662 12.6974 14.0823L12.1197 13.2873C11.7869 13.5291 11.3609 13.67 10.6809 13.7437C9.99169 13.8184 9.10168 13.8191 7.86237 13.8191V14.8018ZM12.7358 12.6713C12.564 12.9076 12.3561 13.1155 12.1197 13.2873L12.6974 14.0823C13.0172 13.85 13.2985 13.5687 13.5308 13.2489L12.7358 12.6713ZM7.86237 3.00871C9.10168 3.00871 9.99169 3.00939 10.6809 3.08406C11.3609 3.15773 11.7869 3.29869 12.1197 3.5405L12.6974 2.74543C12.1691 2.36162 11.5504 2.18975 10.7867 2.10702C10.0323 2.02528 9.07979 2.02595 7.86237 2.02595V3.00871ZM14.2503 8.41389C14.2503 7.19647 14.251 6.24394 14.1692 5.48951C14.0865 4.72588 13.9146 4.10715 13.5308 3.57887L12.7358 4.15652C12.9776 4.48935 13.1185 4.91535 13.1922 5.59536C13.2669 6.28457 13.2675 7.17458 13.2675 8.41389H14.2503ZM12.1197 3.5405C12.3561 3.71225 12.564 3.92013 12.7358 4.15652L13.5308 3.57887C13.2985 3.25905 13.0172 2.9778 12.6974 2.74543L12.1197 3.5405ZM7.86237 2.02595C6.64496 2.02595 5.69243 2.02528 4.93799 2.10702C4.17437 2.18975 3.55563 2.36162 3.02735 2.74543L3.605 3.5405C3.93783 3.29869 4.36384 3.15773 5.04385 3.08406C5.73306 3.00939 6.62307 3.00871 7.86237 3.00871V2.02595ZM2.4572 8.41389C2.4572 7.17458 2.45787 6.28457 2.53255 5.59536C2.60622 4.91535 2.74717 4.48935 2.98899 4.15652L2.19392 3.57887C1.8101 4.10715 1.63824 4.72588 1.5555 5.48951C1.47377 6.24394 1.47444 7.19647 1.47444 8.41389H2.4572ZM3.02735 2.74543C2.70753 2.9778 2.42628 3.25905 2.19392 3.57887L2.98899 4.15652C3.16073 3.92013 3.36862 3.71225 3.605 3.5405L3.02735 2.74543ZM8.35375 11.0346V6.31733H7.37099V11.0346H8.35375ZM5.59069 8.23565L6.50652 7.31161L5.80851 6.6198L4.89268 7.54384L5.59069 8.23565ZM9.21823 7.31161L10.1341 8.23565L10.8321 7.54384L9.91624 6.6198L9.21823 7.31161ZM6.50652 7.31161C6.87983 6.93495 7.13111 6.68248 7.34249 6.51272C7.54611 6.3492 7.66451 6.30326 7.76027 6.29106L7.63601 5.31619C7.28668 5.36071 6.99995 5.52737 6.72712 5.74648C6.46204 5.95936 6.16555 6.25956 5.80851 6.6198L6.50652 7.31161ZM9.91624 6.6198C9.55919 6.25956 9.2627 5.95936 8.99763 5.74648C8.7248 5.52737 8.43807 5.36071 8.08873 5.31619L7.96447 6.29106C8.06023 6.30326 8.17864 6.3492 8.38226 6.51273C8.59364 6.68248 8.84491 6.93495 9.21823 7.31161L9.91624 6.6198ZM7.76027 6.29106C7.79417 6.28674 7.82827 6.28458 7.86237 6.28458L7.86237 5.30182C7.78677 5.30182 7.71116 5.30661 7.63601 5.31618L7.76027 6.29106ZM7.86237 6.28458C7.89647 6.28458 7.93057 6.28674 7.96447 6.29106L8.08873 5.31618C8.01358 5.30661 7.93798 5.30182 7.86237 5.30182L7.86237 6.28458ZM8.35375 6.31733V5.7932H7.37099V6.31733H8.35375Z" fill="#FF0532"/>
</svg>
