<svg width="16" height="17" viewBox="0 0 16 17" fill="none" xmlns="http://www.w3.org/2000/svg">
<path d="M12.4084 3.09107L12.1196 3.48861L12.4084 3.09107ZM13.1332 3.8158L12.7356 4.10463L13.1332 3.8158ZM2.59132 3.8158L2.98885 4.10462L2.59132 3.8158ZM3.31605 3.09107L3.60487 3.48861L3.31605 3.09107ZM3.31604 13.6329L3.60487 13.2354L3.31604 13.6329ZM2.59132 12.9082L2.98885 12.6194L2.59132 12.9082ZM12.4084 13.6329L12.1196 13.2354L12.4084 13.6329ZM13.1332 12.9082L12.7356 12.6194L13.1332 12.9082ZM8.35362 5.7413C8.35362 5.46992 8.13362 5.24992 7.86224 5.24992C7.59086 5.24992 7.37086 5.46992 7.37086 5.7413L8.35362 5.7413ZM10.8319 9.23203C11.023 9.03929 11.0216 8.72816 10.8288 8.53713C10.6361 8.34609 10.325 8.34748 10.1339 8.54023L10.8319 9.23203ZM9.5671 9.81017L9.21809 9.46427L9.5671 9.81017ZM6.15738 9.81017L5.80837 10.1561L5.80837 10.1561L6.15738 9.81017ZM5.59055 8.54023C5.39952 8.34748 5.08839 8.34609 4.89564 8.53713C4.70289 8.72816 4.70151 9.03928 4.89254 9.23203L5.59055 8.54023ZM8.02647 10.9723L8.0886 11.4597L8.0886 11.4597L8.02647 10.9723ZM7.69801 10.9723L7.63588 11.4597L7.63588 11.4597L7.69801 10.9723ZM7.86224 10.9827L7.86224 11.4741L7.86224 10.9827ZM7.86224 2.95682C9.10154 2.95682 9.99155 2.9575 10.6808 3.03217C11.3608 3.10584 11.7868 3.24679 12.1196 3.48861L12.6973 2.69354C12.169 2.30972 11.5502 2.13786 10.7866 2.05512C10.0322 1.97339 9.07965 1.97406 7.86224 1.97406L7.86224 2.95682ZM14.2502 8.36199C14.2502 7.14458 14.2508 6.19205 14.1691 5.43762C14.0864 4.67399 13.9145 4.05526 13.5307 3.52697L12.7356 4.10463C12.9774 4.43746 13.1184 4.86346 13.1921 5.54347C13.2667 6.23268 13.2674 7.12269 13.2674 8.36199L14.2502 8.36199ZM12.1196 3.48861C12.356 3.66035 12.5639 3.86824 12.7356 4.10463L13.5307 3.52697C13.2983 3.20716 13.0171 2.9259 12.6973 2.69354L12.1196 3.48861ZM2.45707 8.36199C2.45707 7.12269 2.45774 6.23268 2.53241 5.54347C2.60609 4.86346 2.74704 4.43746 2.98885 4.10462L2.19379 3.52697C1.80997 4.05525 1.6381 4.67399 1.55537 5.43761C1.47363 6.19205 1.47431 7.14458 1.47431 8.36199L2.45707 8.36199ZM7.86224 1.97406C6.64482 1.97406 5.69229 1.97339 4.93786 2.05512C4.17423 2.13786 3.5555 2.30972 3.02722 2.69354L3.60487 3.48861C3.9377 3.24679 4.36371 3.10584 5.04372 3.03217C5.73292 2.95749 6.62293 2.95682 7.86224 2.95682L7.86224 1.97406ZM2.98885 4.10462C3.1606 3.86824 3.36848 3.66035 3.60487 3.48861L3.02722 2.69354C2.7074 2.9259 2.42615 3.20716 2.19379 3.52697L2.98885 4.10462ZM7.86224 13.7672C6.62293 13.7672 5.73292 13.7665 5.04372 13.6918C4.3637 13.6181 3.9377 13.4772 3.60487 13.2354L3.02722 14.0304C3.5555 14.4143 4.17423 14.5861 4.93786 14.6689C5.69229 14.7506 6.64482 14.7499 7.86224 14.7499L7.86224 13.7672ZM1.47431 8.36199C1.47431 9.57941 1.47363 10.5319 1.55537 11.2864C1.6381 12.05 1.80997 12.6687 2.19378 13.197L2.98885 12.6194C2.74704 12.2865 2.60609 11.8605 2.53241 11.1805C2.45774 10.4913 2.45707 9.6013 2.45707 8.36199L1.47431 8.36199ZM3.60487 13.2354C3.36848 13.0636 3.1606 12.8557 2.98885 12.6194L2.19378 13.197C2.42615 13.5168 2.7074 13.7981 3.02722 14.0304L3.60487 13.2354ZM7.86224 14.7499C9.07965 14.7499 10.0322 14.7506 10.7866 14.6689C11.5502 14.5861 12.169 14.4143 12.6973 14.0304L12.1196 13.2354C11.7868 13.4772 11.3608 13.6181 10.6808 13.6918C9.99155 13.7665 9.10154 13.7672 7.86224 13.7672L7.86224 14.7499ZM13.2674 8.36199C13.2674 9.6013 13.2667 10.4913 13.1921 11.1805C13.1184 11.8605 12.9774 12.2865 12.7356 12.6194L13.5307 13.197C13.9145 12.6687 14.0864 12.05 14.1691 11.2864C14.2508 10.5319 14.2502 9.57941 14.2502 8.36199L13.2674 8.36199ZM12.6973 14.0304C13.0171 13.7981 13.2983 13.5168 13.5307 13.197L12.7356 12.6194C12.5639 12.8557 12.356 13.0636 12.1196 13.2354L12.6973 14.0304ZM7.37086 5.7413L7.37086 10.4585L8.35362 10.4585L8.35362 5.7413L7.37086 5.7413ZM10.1339 8.54023L9.21809 9.46427L9.9161 10.1561L10.8319 9.23203L10.1339 8.54023ZM6.50638 9.46427L5.59055 8.54023L4.89254 9.23203L5.80837 10.1561L6.50638 9.46427ZM9.21809 9.46427C8.84478 9.84092 8.5935 10.0934 8.38212 10.2632C8.1785 10.4267 8.0601 10.4726 7.96434 10.4848L8.0886 11.4597C8.43793 11.4152 8.72466 11.2485 8.99749 11.0294C9.26257 10.8165 9.55906 10.5163 9.9161 10.1561L9.21809 9.46427ZM5.80837 10.1561C6.16542 10.5163 6.46191 10.8165 6.72698 11.0294C6.99981 11.2485 7.28654 11.4152 7.63588 11.4597L7.76014 10.4848C7.66438 10.4726 7.54597 10.4267 7.34235 10.2632C7.13097 10.0934 6.87969 9.84092 6.50638 9.46427L5.80837 10.1561ZM7.96434 10.4848C7.93044 10.4891 7.89633 10.4913 7.86224 10.4913L7.86224 11.4741C7.93784 11.4741 8.01345 11.4693 8.0886 11.4597L7.96434 10.4848ZM7.86224 10.4913C7.82814 10.4913 7.79404 10.4891 7.76014 10.4848L7.63588 11.4597C7.71103 11.4693 7.78663 11.4741 7.86224 11.4741L7.86224 10.4913ZM7.37086 10.4585L7.37086 10.9827L8.35362 10.9827L8.35362 10.4585L7.37086 10.4585Z" fill="#03A100"/>
</svg>
