<svg width="24" height="21" viewBox="0 0 24 21" fill="none" xmlns="http://www.w3.org/2000/svg">
<path d="M23 11.25C23.4142 11.25 23.75 10.9142 23.75 10.5C23.75 10.0858 23.4142 9.75 23 9.75V11.25ZM1 9.75C0.585786 9.75 0.25 10.0858 0.25 10.5C0.25 10.9142 0.585786 11.25 1 11.25V9.75ZM3 14.5L2.25 14.5L2.25 14.5L3 14.5ZM3.75 13.5C3.75 13.0858 3.41421 12.75 3 12.75C2.58579 12.75 2.25 13.0858 2.25 13.5H3.75ZM9 20.25C9.41421 20.25 9.75 19.9142 9.75 19.5C9.75 19.0858 9.41421 18.75 9 18.75V20.25ZM8 19.5L8 18.75H8L8 19.5ZM9 2.25C9.41421 2.25 9.75 1.91421 9.75 1.5C9.75 1.08579 9.41421 0.75 9 0.75V2.25ZM2.25 7.5C2.25 7.91421 2.58579 8.25 3 8.25C3.41421 8.25 3.75 7.91421 3.75 7.5H2.25ZM21 6.5L20.25 6.5V6.5H21ZM20.25 7.5C20.25 7.91421 20.5858 8.25 21 8.25C21.4142 8.25 21.75 7.91421 21.75 7.5H20.25ZM15 0.75C14.5858 0.75 14.25 1.08579 14.25 1.5C14.25 1.91421 14.5858 2.25 15 2.25L15 0.75ZM16 1.5L16 0.75L16 1.5ZM16 19.5L16 18.75H16V19.5ZM15 18.75C14.5858 18.75 14.25 19.0858 14.25 19.5C14.25 19.9142 14.5858 20.25 15 20.25V18.75ZM21.75 13.5C21.75 13.0858 21.4142 12.75 21 12.75C20.5858 12.75 20.25 13.0858 20.25 13.5H21.75ZM21 14.5L21.75 14.5V14.5H21ZM23 9.75H1V11.25H23V9.75ZM3.75 14.5V13.5H2.25V14.5H3.75ZM9 18.75H8V20.25H9V18.75ZM2.25 14.5C2.25 17.6756 4.82436 20.25 8 20.25L8 18.75C5.65279 18.75 3.75 16.8472 3.75 14.5L2.25 14.5ZM8 2.25H9V0.75H8V2.25ZM3.75 7.5V6.5H2.25V7.5H3.75ZM8 0.75C4.82436 0.75 2.25 3.32436 2.25 6.5H3.75C3.75 4.15279 5.65279 2.25 8 2.25V0.75ZM20.25 6.5V7.5H21.75V6.5H20.25ZM15 2.25L16 2.25L16 0.75L15 0.75L15 2.25ZM21.75 6.5C21.75 3.32436 19.1756 0.75 16 0.75L16 2.25C18.3472 2.25 20.25 4.15279 20.25 6.5L21.75 6.5ZM16 18.75H15V20.25H16V18.75ZM20.25 13.5V14.5H21.75V13.5H20.25ZM16 20.25C19.1756 20.25 21.75 17.6756 21.75 14.5L20.25 14.5C20.25 16.8472 18.3472 18.75 16 18.75L16 20.25Z" fill="white"/>
</svg>
