<svg width="24" height="25" viewBox="0 0 24 25" fill="none" xmlns="http://www.w3.org/2000/svg">
<path d="M15 17.5H11M8 17.5H6M2.01105 10.5C2 11.077 2 11.7365 2 12.5C2 15.3003 2 16.7004 2.54497 17.77C3.02433 18.7108 3.78924 19.4757 4.73005 19.955C5.79961 20.5 7.19974 20.5 10 20.5H14C16.8003 20.5 18.2004 20.5 19.27 19.955C20.2108 19.4757 20.9757 18.7108 21.455 17.77C22 16.7004 22 15.3003 22 12.5C22 11.7365 22 11.077 21.989 10.5M2.01105 10.5C2.04052 8.96078 2.14859 8.00797 2.54497 7.23005C3.02433 6.28924 3.78924 5.52433 4.73005 5.04497C5.79961 4.5 7.19974 4.5 10 4.5H14C16.8003 4.5 18.2004 4.5 19.27 5.04497C20.2108 5.52433 20.9757 6.28924 21.455 7.23005C21.8514 8.00797 21.9595 8.96078 21.989 10.5M2.01105 10.5H21.989" stroke="white" stroke-width="1.5" stroke-linecap="round"/>
</svg>
