<svg width="33" height="33" viewBox="0 0 33 33" fill="none" xmlns="http://www.w3.org/2000/svg">
<rect width="32.4882" height="32.4882" rx="16.2441" fill="#00ABFF"/>
<path d="M11.3016 18.536C11.058 18.6767 10.9746 18.9882 11.1152 19.2317C11.2559 19.4753 11.5673 19.5588 11.8109 19.4182L11.3016 18.536ZM21.2202 13.9857C21.4637 13.8451 21.5472 13.5336 21.4066 13.29C21.2659 13.0464 20.9545 12.963 20.7109 13.1036L21.2202 13.9857ZM17.0452 11.4699C16.7732 11.3983 16.4946 11.5608 16.423 11.8328C16.3515 12.1048 16.5139 12.3833 16.7859 12.4549L17.0452 11.4699ZM18.5456 12.3914L18.416 12.8839L18.5456 12.3914ZM20.7543 16.217L20.263 16.083L20.7543 16.217ZM19.8195 17.7092C19.7455 17.9805 19.9055 18.2605 20.1768 18.3345C20.4482 18.4085 20.7282 18.2485 20.8022 17.9772L19.8195 17.7092ZM20.8474 13.3672L21.2527 13.0588L21.2527 13.0588L20.8474 13.3672ZM21.0602 13.7357L21.5299 13.5389L21.5299 13.5389L21.0602 13.7357ZM11.8109 19.4182L21.2202 13.9857L20.7109 13.1036L11.3016 18.536L11.8109 19.4182ZM16.7859 12.4549L18.416 12.8839L18.6752 11.8988L17.0452 11.4699L16.7859 12.4549ZM20.263 16.083L19.8195 17.7092L20.8022 17.9772L21.2457 16.351L20.263 16.083ZM18.416 12.8839C19.0775 13.058 19.5318 13.1783 19.8675 13.3088C20.1936 13.4355 20.3463 13.5496 20.4421 13.6755L21.2527 13.0588C20.9966 12.722 20.6483 12.5194 20.2364 12.3593C19.8342 12.2031 19.3136 12.0668 18.6752 11.8988L18.416 12.8839ZM21.2457 16.351C21.4194 15.7142 21.5617 15.1952 21.6275 14.7687C21.6948 14.3321 21.6934 13.9291 21.5299 13.5389L20.5905 13.9325C20.6516 14.0784 20.6741 14.2677 20.6208 14.6135C20.5659 14.9694 20.443 15.4231 20.263 16.083L21.2457 16.351ZM20.4421 13.6755C20.5022 13.7546 20.5521 13.8409 20.5905 13.9325L21.5299 13.5389C21.4582 13.3677 21.3651 13.2064 21.2527 13.0588L20.4421 13.6755Z" fill="white"/>
</svg>
