<svg width="16" height="16" viewBox="0 0 16 16" fill="none" xmlns="http://www.w3.org/2000/svg">
<g clip-path="url(#clip0_131_7231)">
<path d="M1.80193 8.0172C1.80193 7.74582 1.58193 7.52582 1.31055 7.52582C1.03917 7.52582 0.819168 7.74582 0.819168 8.0172H1.80193ZM13.9226 8.0172C13.9226 8.28858 14.1426 8.50858 14.414 8.50858C14.6854 8.50858 14.9054 8.28858 14.9054 8.0172H13.9226ZM2.88323 3.75858L3.23702 4.09958L3.24708 4.08915L3.2565 4.07814L2.88323 3.75858ZM12.8413 12.2758L13.2146 12.5954L13.2207 12.5883L13.2265 12.581L12.8413 12.2758ZM2.6292 0.812495C2.63042 0.541116 2.4114 0.320139 2.14002 0.318928C1.86864 0.317718 1.64767 0.536732 1.64646 0.80811L2.6292 0.812495ZM2.13203 2.11129L1.64065 2.10909L2.13203 2.11129ZM4.54306 4.52232L4.54525 5.0137H4.54525L4.54306 4.52232ZM5.84624 5.00789C6.11762 5.00668 6.33663 4.7857 6.33542 4.51432C6.33421 4.24295 6.11323 4.02393 5.84185 4.02514L5.84624 5.00789ZM2.3997 4.0224L2.01109 4.32313L2.01109 4.32313L2.3997 4.0224ZM2.63195 4.25465L2.33121 4.64325L2.33121 4.64325L2.63195 4.25465ZM13.0426 15.1692C13.0414 15.4406 13.2604 15.6616 13.5318 15.6628C13.8032 15.664 14.0242 15.445 14.0254 15.1736L13.0426 15.1692ZM13.5398 13.8704L14.0312 13.8726L13.5398 13.8704ZM11.1288 11.4594L11.1266 10.968L11.1288 11.4594ZM9.8256 10.9738C9.55422 10.975 9.33521 11.196 9.33642 11.4674C9.33763 11.7388 9.55861 11.9578 9.82998 11.9566L9.8256 10.9738ZM13.2721 11.9593L13.6607 11.6586L13.6607 11.6586L13.2721 11.9593ZM13.0399 11.7271L13.3406 11.3385L13.3406 11.3385L13.0399 11.7271ZM2.5092 4.14664L2.16202 4.49438L2.5092 4.14664ZM7.86227 14.0775C4.51523 14.0775 1.80193 11.3642 1.80193 8.0172H0.819168C0.819168 11.907 3.97247 15.0603 7.86227 15.0603V14.0775ZM7.86227 1.95685C11.2093 1.95685 13.9226 4.67016 13.9226 8.0172H14.9054C14.9054 4.1274 11.7521 0.974096 7.86227 0.974096V1.95685ZM3.2565 4.07814C4.36877 2.77894 6.01926 1.95685 7.86227 1.95685V0.974096C5.72013 0.974096 3.80097 1.93103 2.50996 3.43901L3.2565 4.07814ZM12.468 11.9563C11.3558 13.2555 9.70529 14.0775 7.86227 14.0775V15.0603C10.0044 15.0603 11.9236 14.1034 13.2146 12.5954L12.468 11.9563ZM1.64646 0.80811L1.64065 2.10909L2.6234 2.11348L2.6292 0.812495L1.64646 0.80811ZM4.54525 5.0137L5.84624 5.00789L5.84185 4.02514L4.54087 4.03095L4.54525 5.0137ZM1.64065 2.10909C1.63839 2.61629 1.63576 3.03822 1.67267 3.37619C1.71066 3.72404 1.79556 4.04463 2.01109 4.32313L2.7883 3.72166C2.72921 3.64532 2.67797 3.52911 2.64962 3.2695C2.62019 3 2.62103 2.64379 2.6234 2.11348L1.64065 2.10909ZM4.54087 4.03095C4.01056 4.03331 3.65435 4.03416 3.38485 4.00473C3.12524 3.97638 3.00903 3.92513 2.93269 3.86605L2.33121 4.64325C2.60972 4.85879 2.93031 4.94369 3.27816 4.98168C3.61613 5.01859 4.03805 5.01596 4.54525 5.0137L4.54087 4.03095ZM14.0254 15.1736L14.0312 13.8726L13.0484 13.8682L13.0426 15.1692L14.0254 15.1736ZM11.1266 10.968L9.8256 10.9738L9.82998 11.9566L11.131 11.9508L11.1266 10.968ZM14.0312 13.8726C14.0334 13.3654 14.0361 12.9435 13.9992 12.6055C13.9612 12.2577 13.8763 11.9371 13.6607 11.6586L12.8835 12.2601C12.9426 12.3364 12.9939 12.4526 13.0222 12.7122C13.0516 12.9817 13.0508 13.3379 13.0484 13.8682L14.0312 13.8726ZM11.131 11.9508C11.6613 11.9484 12.0175 11.9476 12.287 11.977C12.5466 12.0053 12.6628 12.0566 12.7391 12.1157L13.3406 11.3385C13.0621 11.1229 12.7415 11.038 12.3937 11C12.0557 10.9631 11.6338 10.9658 11.1266 10.968L11.131 11.9508ZM2.01109 4.32313C2.05776 4.38343 2.10817 4.44062 2.16202 4.49438L2.85637 3.7989C2.83209 3.77466 2.80935 3.74886 2.7883 3.72166L2.01109 4.32313ZM2.16202 4.49438C2.21518 4.54746 2.27169 4.59718 2.33121 4.64325L2.93269 3.86605C2.90583 3.84527 2.88035 3.82284 2.85637 3.7989L2.16202 4.49438ZM2.52944 3.41757L2.1554 3.80564L2.86299 4.48765L3.23702 4.09958L2.52944 3.41757ZM13.6607 11.6586C13.6203 11.6063 13.577 11.5564 13.5311 11.509L12.8251 12.1926C12.8458 12.2139 12.8653 12.2365 12.8835 12.2601L13.6607 11.6586ZM13.5311 11.509C13.4718 11.4477 13.4082 11.3907 13.3406 11.3385L12.7391 12.1157C12.7696 12.1392 12.7983 12.1649 12.8251 12.1926L13.5311 11.509ZM13.2265 12.581L13.5632 12.1559L12.793 11.5456L12.4562 11.9707L13.2265 12.581Z" fill="#03A100"/>
</g>
<defs>
<clipPath id="clip0_131_7231">
<rect width="15.7241" height="15.7241" fill="white" transform="translate(0 0.155029)"/>
</clipPath>
</defs>
</svg>
