<svg width="24" height="25" viewBox="0 0 24 25" fill="none" xmlns="http://www.w3.org/2000/svg">
<g clip-path="url(#clip0_131_6921)">
<path fill-rule="evenodd" clip-rule="evenodd" d="M4.01269 1.50335C4.01454 1.08914 3.68025 0.751856 3.26604 0.750008C2.85183 0.74816 2.51455 1.08244 2.5127 1.49665L2.50365 3.52568C2.50026 4.28057 2.49743 4.91015 2.55271 5.41635C2.61069 5.94728 2.74029 6.43661 3.06926 6.86169C3.14048 6.95372 3.21743 7.04101 3.29962 7.12306C3.38076 7.20408 3.467 7.27998 3.55786 7.35029C3.98294 7.67926 4.47227 7.80886 5.0032 7.86684C5.50939 7.92211 6.13897 7.91929 6.89383 7.9159L8.9229 7.90685C9.3371 7.905 9.67139 7.56772 9.66954 7.15351C9.66769 6.7393 9.33041 6.40501 8.9162 6.40686L6.93049 6.41572C6.12107 6.41933 5.57738 6.42062 5.16604 6.3757C5.13511 6.37232 5.10551 6.36873 5.07717 6.36494C6.77277 4.4531 9.2455 3.25 12 3.25C17.1086 3.25 21.25 7.39137 21.25 12.5C21.25 12.9142 21.5858 13.25 22 13.25C22.4142 13.25 22.75 12.9142 22.75 12.5C22.75 6.56294 17.9371 1.75 12 1.75C8.84724 1.75 6.01093 3.10807 4.04555 5.26878L4.04385 5.25351C3.99893 4.84217 4.00022 4.29848 4.00383 3.48906L4.01269 1.50335Z" fill="#002F46"/>
<path d="M2.75 12.5C2.75 12.0858 2.41421 11.75 2 11.75C1.58579 11.75 1.25 12.0858 1.25 12.5C1.25 18.4371 6.06294 23.25 12 23.25C15.1177 23.25 17.926 21.9219 19.8886 19.803C19.9203 20.1969 19.919 20.7078 19.9157 21.4305L19.9069 23.4162C19.905 23.8305 20.2393 24.1677 20.6535 24.1696C21.0677 24.1714 21.405 23.8371 21.4069 23.4229L21.4159 21.3939C21.4193 20.639 21.4221 20.0094 21.3668 19.5032C21.3089 18.9723 21.1793 18.483 20.8503 18.0579C20.7885 17.9781 20.7225 17.9019 20.6524 17.8295C20.5619 17.7361 20.4648 17.6491 20.3617 17.5693C19.9366 17.2403 19.4473 17.1107 18.9164 17.0528C18.4102 16.9975 17.7806 17.0003 17.0257 17.0037L14.9967 17.0127C14.5824 17.0146 14.2482 17.3519 14.25 17.7661C14.2519 18.1803 14.5891 18.5146 15.0034 18.5127L16.9891 18.5039C17.7985 18.5003 18.3422 18.499 18.7535 18.5439C18.8365 18.553 18.91 18.5636 18.9752 18.5755C17.2784 20.5219 14.783 21.75 12 21.75C6.89137 21.75 2.75 17.6086 2.75 12.5Z" fill="#002F46"/>
</g>
<defs>
<clipPath id="clip0_131_6921">
<rect width="24" height="24" fill="white" transform="translate(0 0.5)"/>
</clipPath>
</defs>
</svg>
