<svg width="24" height="25" viewBox="0 0 24 25" fill="none" xmlns="http://www.w3.org/2000/svg">
<path d="M6.29318 5.46556C8.95999 3.528 10.2934 2.55923 11.8162 2.50336C11.9384 2.49888 12.0607 2.49888 12.1828 2.50336C13.7056 2.55923 15.039 3.528 17.7059 5.46556C20.3727 7.40311 21.7061 8.37189 22.2298 9.80291C22.2718 9.91771 22.3096 10.034 22.3431 10.1516C22.7605 11.6171 22.2512 13.1846 21.2326 16.3197L19.5115 21.6164C19.2381 22.458 18.4538 23.0279 17.5689 23.0279C16.4408 23.0279 15.5262 22.1133 15.5262 20.9852V18.2363C15.5262 17.1778 14.6681 16.3197 13.6096 16.3197H10.3894C9.33091 16.3197 8.47281 17.1778 8.47281 18.2363V20.9852C8.47281 22.1133 7.55828 23.0279 6.43016 23.0279C5.54524 23.0279 4.76095 22.458 4.48749 21.6164L2.76647 16.3197C1.74783 13.1846 1.23852 11.6171 1.65596 10.1516C1.68945 10.034 1.72724 9.91771 1.76925 9.80291C2.29295 8.37189 3.62636 7.40311 6.29318 5.46556Z" stroke="white" stroke-width="1.5"/>
</svg>
