<svg width="24" height="25" viewBox="0 0 24 25" fill="none" xmlns="http://www.w3.org/2000/svg">
<path d="M6 12.5C6 13.6046 5.10457 14.5 4 14.5C2.89543 14.5 2 13.6046 2 12.5C2 11.3954 2.89543 10.5 4 10.5C5.10457 10.5 6 11.3954 6 12.5Z" stroke="white" stroke-width="1.5"/>
<path d="M14 12.5C14 13.6046 13.1046 14.5 12 14.5C10.8954 14.5 10 13.6046 10 12.5C10 11.3954 10.8954 10.5 12 10.5C13.1046 10.5 14 11.3954 14 12.5Z" stroke="white" stroke-width="1.5"/>
<path d="M22 12.5C22 13.6046 21.1046 14.5 20 14.5C18.8954 14.5 18 13.6046 18 12.5C18 11.3954 18.8954 10.5 20 10.5C21.1046 10.5 22 11.3954 22 12.5Z" stroke="white" stroke-width="1.5"/>
<path d="M6 4.5C6 5.60457 5.10457 6.5 4 6.5C2.89543 6.5 2 5.60457 2 4.5C2 3.39543 2.89543 2.5 4 2.5C5.10457 2.5 6 3.39543 6 4.5Z" stroke="white" stroke-width="1.5"/>
<path d="M14 4.5C14 5.60457 13.1046 6.5 12 6.5C10.8954 6.5 10 5.60457 10 4.5C10 3.39543 10.8954 2.5 12 2.5C13.1046 2.5 14 3.39543 14 4.5Z" stroke="white" stroke-width="1.5"/>
<path d="M22 4.5C22 5.60457 21.1046 6.5 20 6.5C18.8954 6.5 18 5.60457 18 4.5C18 3.39543 18.8954 2.5 20 2.5C21.1046 2.5 22 3.39543 22 4.5Z" stroke="white" stroke-width="1.5"/>
<path d="M6 20.5C6 21.6046 5.10457 22.5 4 22.5C2.89543 22.5 2 21.6046 2 20.5C2 19.3954 2.89543 18.5 4 18.5C5.10457 18.5 6 19.3954 6 20.5Z" stroke="white" stroke-width="1.5"/>
<path d="M14 20.5C14 21.6046 13.1046 22.5 12 22.5C10.8954 22.5 10 21.6046 10 20.5C10 19.3954 10.8954 18.5 12 18.5C13.1046 18.5 14 19.3954 14 20.5Z" stroke="white" stroke-width="1.5"/>
<path d="M22 20.5C22 21.6046 21.1046 22.5 20 22.5C18.8954 22.5 18 21.6046 18 20.5C18 19.3954 18.8954 18.5 20 18.5C21.1046 18.5 22 19.3954 22 20.5Z" stroke="white" stroke-width="1.5"/>
</svg>
