<svg width="116" height="29" viewBox="0 0 116 29" fill="none" xmlns="http://www.w3.org/2000/svg">
<path d="M35.8672 19.7848C39.0892 19.7848 40.8712 18.1828 40.8712 15.7708C40.8712 11.3068 34.0852 12.4228 34.0852 10.9468C34.0852 10.4248 34.4812 10.1188 35.3812 10.1188C36.5692 10.1188 37.8832 10.5328 38.8912 11.3788L40.5832 9.05685C39.3052 7.95885 37.6312 7.38285 35.7052 7.38285C32.6272 7.38285 30.9352 9.18285 30.9352 11.1988C30.9352 15.8248 37.7212 14.5108 37.7212 16.0948C37.7212 16.6888 37.0732 17.0488 36.0292 17.0488C34.3732 17.0488 33.0412 16.3288 32.1772 15.4648L30.5392 17.8768C31.7452 19.0108 33.4372 19.7848 35.8672 19.7848ZM52.4386 19.5688L55.0126 10.8748H52.1506L50.7646 16.2028L49.0546 10.8748H46.5886L44.8786 16.2028L43.4746 10.8748H40.6306L43.2046 19.5688H46.1926L47.8126 14.1868L49.4506 19.5688H52.4386ZM63.4566 19.5688V14.1328C63.4566 11.4328 61.4946 10.6588 59.4066 10.6588C58.0746 10.6588 56.5806 11.0548 55.4646 12.0088L56.4906 13.9348C57.1926 13.3408 58.0566 12.9988 58.9206 12.9988C60.0366 12.9988 60.6846 13.5208 60.6846 14.2768V15.1408C60.1626 14.4928 59.1366 14.1148 57.9846 14.1148C56.6526 14.1148 54.9966 14.8168 54.9966 16.9228C54.9966 18.8668 56.6526 19.7848 57.9846 19.7848C59.1006 19.7848 60.1446 19.3528 60.6846 18.7048V19.5688H63.4566ZM59.1366 17.9668C58.4166 17.9668 57.7506 17.6428 57.7506 16.9588C57.7506 16.2748 58.4166 15.9508 59.1366 15.9508C59.7486 15.9508 60.3966 16.1488 60.6846 16.5628V17.3368C60.3966 17.7508 59.7486 17.9668 59.1366 17.9668ZM70.4547 19.7848C72.6327 19.7848 74.2707 18.1648 74.2707 15.2128C74.2707 12.2788 72.6327 10.6588 70.4547 10.6588C69.4647 10.6588 68.5647 11.0548 67.8807 11.8828V10.8748H65.1087V22.8808H67.8807V18.5428C68.6007 19.4068 69.4827 19.7848 70.4547 19.7848ZM69.5367 17.3368C68.9427 17.3368 68.2227 16.9948 67.8807 16.5448V13.8988C68.2227 13.4308 68.9427 13.1068 69.5367 13.1068C70.6167 13.1068 71.4447 13.9168 71.4447 15.2128C71.4447 16.5268 70.6167 17.3368 69.5367 17.3368ZM84.0063 19.5688V13.4128C84.0063 11.8108 83.1063 10.6588 81.1443 10.6588C79.6683 10.6588 78.6423 11.3248 78.1203 11.9368V10.8748H75.3483V19.5688H78.1203V13.9528C78.4443 13.5568 78.9843 13.1068 79.8123 13.1068C80.6763 13.1068 81.2343 13.4848 81.2343 14.5468V19.5688H84.0063ZM88.8262 19.5688V15.5368H91.7422C94.4422 15.5368 95.9182 13.7188 95.9182 11.5588C95.9182 9.38085 94.4422 7.56285 91.7422 7.56285H85.7302V19.5688H88.8262ZM91.2742 12.8368H88.8262V10.2628H91.2742C92.1022 10.2628 92.7682 10.7308 92.7682 11.5588C92.7682 12.3688 92.1022 12.8368 91.2742 12.8368ZM104.415 19.5688V14.1328C104.415 11.4328 102.453 10.6588 100.365 10.6588C99.033 10.6588 97.539 11.0548 96.423 12.0088L97.449 13.9348C98.151 13.3408 99.015 12.9988 99.879 12.9988C100.995 12.9988 101.643 13.5208 101.643 14.2768V15.1408C101.121 14.4928 100.095 14.1148 98.943 14.1148C97.611 14.1148 95.955 14.8168 95.955 16.9228C95.955 18.8668 97.611 19.7848 98.943 19.7848C100.059 19.7848 101.103 19.3528 101.643 18.7048V19.5688H104.415ZM100.095 17.9668C99.375 17.9668 98.709 17.6428 98.709 16.9588C98.709 16.2748 99.375 15.9508 100.095 15.9508C100.707 15.9508 101.355 16.1488 101.643 16.5628V17.3368C101.355 17.7508 100.707 17.9668 100.095 17.9668ZM105.887 22.9528C106.175 23.0428 106.823 23.0968 107.075 23.0968C108.749 23.0608 110.045 22.6468 110.747 20.8108L114.671 10.8748H111.737L109.775 16.3828L107.795 10.8748H104.879L108.353 19.6948L108.155 20.1628C107.993 20.5228 107.597 20.6488 106.967 20.6488C106.751 20.6488 106.481 20.5948 106.283 20.4868L105.887 22.9528Z" fill="#01304A"/>
<path d="M19.628 10.8475C19.628 11.3403 19.312 11.5493 18.8634 11.3267C18.4149 11.1041 18.0241 10.8169 17.6095 10.5621C16.9469 10.1475 16.2825 9.73801 15.6283 9.31154C15.0523 8.93774 15.0456 8.67948 15.5893 8.28019C15.8441 8.09499 15.7065 7.87411 15.6181 7.7093C15.1288 6.77479 14.5545 5.90485 13.6676 5.28468C12.4782 4.45381 11.1665 4.00185 9.72226 4.18365C8.27954 4.33843 6.94654 5.02614 5.98424 6.11214C4.75749 7.49351 4.07275 9.10256 4.25625 10.9614C4.44485 12.8865 5.39974 14.3596 7.10904 15.357C8.17438 15.9754 9.31787 16.181 10.5072 16.1946C11.0985 16.1946 11.2022 16.3102 11.2022 16.9082C11.2022 17.5624 11.1886 18.2165 11.1767 18.8724C11.1767 19.3821 10.9949 19.6353 10.4971 19.6115C9.66131 19.5731 8.82913 19.4784 8.00617 19.3278C7.43828 19.2026 6.88272 19.0269 6.34615 18.8027C5.13808 18.3423 4.13732 17.5726 3.25039 16.6466C2.30811 15.6519 1.59939 14.4596 1.17578 13.1566C0.765765 11.9282 0.610816 10.6291 0.720421 9.33873C0.847836 7.78596 1.36503 6.29045 2.22412 4.99072C2.92843 3.90918 3.8483 2.98458 4.92622 2.27474C6.00414 1.5649 7.21691 1.08509 8.48871 0.865309C9.67011 0.647312 10.8831 0.666945 12.0568 0.923073C13.1872 1.16187 14.2627 1.61086 15.2274 2.24668C16.2083 2.85844 17.0574 3.6596 17.725 4.60333C18.054 5.09935 18.3541 5.6139 18.6239 6.14442C18.7377 6.36021 18.8278 6.43327 19.0809 6.3687C19.5244 6.25486 19.6926 6.40269 19.6994 6.87843C19.7385 7.56147 19.6399 10.2053 19.628 10.8475Z" fill="#01304A"/>
<path d="M0.168227 18.1299C0.20051 17.6202 0.535236 17.4503 0.956613 17.7221C2.07236 18.4244 3.18923 19.1262 4.30724 19.8273C4.66745 20.0533 4.72182 20.4339 4.3718 20.6565C4.08126 20.8417 4.16282 21.0303 4.25797 21.224C4.69792 22.1956 5.37225 23.0427 6.22043 23.6894C7.26198 24.4523 8.42926 24.9025 9.71038 24.8499C11.9328 24.7598 13.5979 23.6979 14.7329 21.7915C15.4601 20.5647 15.8509 19.2598 15.6352 17.8326C15.3769 16.1335 14.563 14.7742 13.1086 13.8193C12.0442 13.1281 10.7917 12.7838 9.52348 12.8338C8.84384 12.8457 8.71471 12.7183 8.7232 12.0573C8.7317 11.3964 8.7402 10.7473 8.7521 10.0931C8.74471 9.99971 8.75764 9.9058 8.79001 9.81783C8.82238 9.72987 8.87342 9.64994 8.93962 9.58358C9.00581 9.51723 9.0856 9.46601 9.17348 9.43342C9.26136 9.40083 9.35527 9.38766 9.44872 9.39482C10.8871 9.36196 12.315 9.64743 13.6302 10.2308C15.0341 10.862 16.2647 11.8233 17.217 13.0326C17.8259 13.8028 18.3051 14.6671 18.6358 15.5915C19.1732 17.0472 19.3408 18.6136 19.1234 20.1501C18.9169 21.6147 18.3718 23.0109 17.5314 24.228C16.9123 25.1372 16.1327 25.926 15.2308 26.5558C14.5794 26.9905 13.8861 27.3588 13.1613 27.6551C11.5437 28.35 9.83102 28.4027 8.13362 28.1359C7.27387 28 6.44641 27.616 5.62914 27.2864C4.46526 26.7975 3.44703 26.0168 2.6727 25.0198C2.13069 24.3401 1.70252 23.5738 1.25055 22.8313C1.12992 22.6325 1.08065 22.5102 0.810493 22.6359C0.310957 22.8619 0.00511507 22.6359 1.77646e-05 22.0973C-0.00168134 21.4466 0.118953 18.8096 0.168227 18.1299Z" fill="#01304A"/>
</svg>
