<svg width="25" height="24" viewBox="0 0 25 24" fill="none" xmlns="http://www.w3.org/2000/svg">
<path d="M4.46875 3.44002V19.5592C4.46886 19.5941 4.47929 19.6283 4.49873 19.6574C4.51818 19.6864 4.54577 19.7091 4.57806 19.7226C4.61034 19.736 4.64587 19.7396 4.6802 19.733C4.71453 19.7263 4.74613 19.7096 4.77104 19.6851L13.1641 11.5L4.77104 3.3141C4.74613 3.28955 4.71453 3.27289 4.6802 3.26623C4.64587 3.25956 4.61034 3.26318 4.57806 3.27663C4.54577 3.29007 4.51818 3.31275 4.49873 3.34182C4.47929 3.37089 4.46886 3.40505 4.46875 3.44002ZM16.6832 8.13672L6.15941 2.33875L6.15285 2.33506C5.97156 2.23662 5.7993 2.48189 5.94777 2.62463L14.1972 10.5128L16.6832 8.13672ZM5.94859 20.3754C5.7993 20.5181 5.97156 20.7634 6.15367 20.6649L6.16023 20.6612L16.6832 14.8633L14.1972 12.4864L5.94859 20.3754ZM20.9316 10.4746L17.9928 8.85613L15.2296 11.5L17.9928 14.1426L20.9316 12.5254C21.731 12.0837 21.731 10.9163 20.9316 10.4746Z" fill="white"/>
</svg>
