<svg width="56" height="56" viewBox="0 0 56 56" fill="none" xmlns="http://www.w3.org/2000/svg">
<g opacity="0.3" filter="url(#filter0_f_138_8406)">
<path d="M27.4612 10.0483C27.819 10.0161 28.179 10.0161 28.5369 10.0483L29.6039 10.1444C29.9617 10.1766 30.3159 10.2408 30.6623 10.3364L31.695 10.6214C32.0413 10.717 32.3784 10.8435 32.7021 10.9994L33.6673 11.4642C33.991 11.6201 34.3 11.8048 34.5907 12.0159L35.4574 12.6457C35.7481 12.8568 36.0192 13.0937 36.2675 13.3534L37.0078 14.1277C37.2561 14.3874 37.4806 14.6689 37.6785 14.9687L38.2687 15.8628C38.4666 16.1627 38.6372 16.4797 38.7784 16.81L39.1995 17.7952C39.3407 18.1255 39.4519 18.4679 39.5319 18.8182L39.7703 19.8626C39.8502 20.2129 39.8985 20.5697 39.9147 20.9286L39.9627 21.9988C39.9788 22.3577 39.9627 22.7174 39.9145 23.0734L39.7707 24.135C39.7224 24.4911 39.6423 24.8421 39.5313 25.1837L39.2002 26.2026C39.0892 26.5443 38.9477 26.8754 38.7775 27.1917L38.2698 28.1351C38.0996 28.4515 37.9012 28.752 37.6772 29.0329L37.0093 29.8705C36.7852 30.1514 36.5365 30.4116 36.2659 30.648L35.4591 31.3528C35.1886 31.5892 34.8973 31.8008 34.5889 31.9851L33.6692 32.5346C33.3608 32.7188 33.0364 32.875 32.7001 33.0013L31.697 33.3777C31.3607 33.504 31.0136 33.5997 30.6601 33.6639L29.606 33.8552C29.2525 33.9193 28.894 33.9516 28.5347 33.9516H27.4634C27.1041 33.9516 26.7455 33.9193 26.392 33.8552L25.3379 33.6639C24.9844 33.5997 24.6374 33.504 24.301 33.3777L23.298 33.0013C22.9616 32.875 22.6373 32.7188 22.3289 32.5346L21.4092 31.9851C21.1008 31.8008 20.8095 31.5892 20.5389 31.3528L19.7322 30.648C19.4616 30.4116 19.2128 30.1514 18.9888 29.8705L18.3208 29.0329C18.0968 28.752 17.8985 28.4515 17.7283 28.1352L17.2206 27.1917C17.0503 26.8754 16.9088 26.5443 16.7978 26.2026L16.4668 25.1837C16.3557 24.8421 16.2756 24.4911 16.2274 24.135L16.0836 23.0734C16.0354 22.7174 16.0192 22.3577 16.0353 21.9988L16.0834 20.9286C16.0995 20.5697 16.1478 20.2129 16.2278 19.8626L16.4662 18.8182C16.5461 18.4679 16.6574 18.1255 16.7986 17.7952L17.2196 16.81C17.3609 16.4797 17.5314 16.1627 17.7294 15.8628L18.3196 14.9687C18.5175 14.6689 18.7419 14.3874 18.9902 14.1277L19.7306 13.3534C19.9789 13.0937 20.25 12.8568 20.5406 12.6457L21.4074 12.0159C21.698 11.8048 22.0071 11.6201 22.3308 11.4642L23.296 10.9994C23.6197 10.8435 23.9567 10.717 24.3031 10.6214L25.3358 10.3364C25.6821 10.2408 26.0363 10.1766 26.3942 10.1444L27.4612 10.0483Z" fill="#194327"/>
</g>
<g opacity="0.4" filter="url(#filter1_f_138_8406)">
<path d="M27.4621 15.0483C27.82 15.0161 28.18 15.0161 28.5378 15.0483L29.7834 15.1604C30.1412 15.1926 30.4954 15.2569 30.8418 15.3525L32.0473 15.6852C32.3936 15.7808 32.7307 15.9073 33.0544 16.0632L34.1811 16.6058C34.5048 16.7617 34.8139 16.9463 35.1045 17.1575L36.1163 17.8926C36.407 18.1038 36.6781 18.3406 36.9264 18.6003L37.7906 19.5042C38.0389 19.7639 38.2633 20.0454 38.4613 20.3452L39.1502 21.3889C39.3482 21.6888 39.5187 22.0058 39.66 22.3362L40.1515 23.4861C40.2927 23.8165 40.4039 24.1589 40.4839 24.5092L40.7622 25.7284C40.8421 26.0787 40.8904 26.4354 40.9065 26.7944L40.9627 28.0437C40.9788 28.4026 40.9626 28.7623 40.9144 29.1183L40.7465 30.3576C40.6983 30.7136 40.6182 31.0646 40.5072 31.4063L40.1207 32.5957C40.0097 32.9374 39.8682 33.2684 39.6979 33.5848L39.1053 34.686C38.9351 35.0024 38.7367 35.3029 38.5127 35.5838L37.733 36.5615C37.509 36.8424 37.2602 37.1026 36.9896 37.339L36.0478 38.1618C35.7773 38.3982 35.486 38.6098 35.1776 38.7941L34.104 39.4355C33.7956 39.6198 33.4713 39.776 33.1349 39.9023L31.964 40.3417C31.6277 40.4679 31.2806 40.5637 30.9271 40.6279L29.6966 40.8512C29.3431 40.9153 28.9846 40.9476 28.6253 40.9476H27.3747C27.0154 40.9476 26.6568 40.9153 26.3033 40.8512L25.0728 40.6279C24.7193 40.5637 24.3723 40.4679 24.0359 40.3417L22.8651 39.9023C22.5287 39.776 22.2043 39.6198 21.8959 39.4355L20.8223 38.7941C20.5139 38.6098 20.2227 38.3982 19.9521 38.1618L19.0103 37.339C18.7397 37.1026 18.491 36.8424 18.2669 36.5615L17.4872 35.5838C17.2632 35.3029 17.0649 35.0024 16.8946 34.686L16.302 33.5848C16.1318 33.2684 15.9903 32.9374 15.8792 32.5957L15.4928 31.4063C15.3818 31.0646 15.3017 30.7136 15.2534 30.3576L15.0856 29.1183C15.0373 28.7623 15.0212 28.4026 15.0373 28.0437L15.0934 26.7944C15.1095 26.4354 15.1578 26.0787 15.2378 25.7284L15.5161 24.5092C15.596 24.1589 15.7073 23.8165 15.8485 23.4861L16.34 22.3362C16.4812 22.0058 16.6518 21.6888 16.8497 21.3889L17.5387 20.3452C17.7366 20.0454 17.9611 19.7639 18.2093 19.5042L19.0736 18.6003C19.3219 18.3406 19.593 18.1038 19.8836 17.8926L20.8954 17.1575C21.1861 16.9463 21.4951 16.7617 21.8188 16.6058L22.9456 16.0632C23.2693 15.9073 23.6063 15.7808 23.9527 15.6852L25.1582 15.3525C25.5045 15.2569 25.8587 15.1926 26.2166 15.1604L27.4621 15.0483Z" fill="#194327"/>
</g>
<path d="M27.463 2.04832C27.8209 2.01612 28.1809 2.01612 28.5387 2.04832L30.3199 2.20864C30.6778 2.24084 31.032 2.30513 31.3783 2.40071L33.1023 2.8765C33.4486 2.97208 33.7857 3.09858 34.1094 3.25446L35.7207 4.03044C36.0444 4.18632 36.3535 4.37097 36.6441 4.58215L38.091 5.63336C38.3817 5.84454 38.6528 6.0814 38.9011 6.34109L40.137 7.63376C40.3853 7.89345 40.6097 8.17491 40.8077 8.47476L41.7929 9.96734C41.9908 10.2672 42.1614 10.5842 42.3026 10.9146L43.0055 12.5591C43.1467 12.8895 43.258 13.2318 43.3379 13.5821L43.7359 15.3257C43.8158 15.676 43.8642 16.0327 43.8803 16.3917L43.9605 18.1783C43.9766 18.5372 43.9605 18.8968 43.9123 19.2529L43.6722 21.0251C43.624 21.3812 43.5439 21.7321 43.4328 22.0738L42.8802 23.7747C42.7692 24.1164 42.6277 24.4475 42.4574 24.7638L41.6099 26.3387C41.4397 26.6551 41.2413 26.9556 41.0173 27.2365L39.9023 28.6347C39.6783 28.9156 39.4295 29.1758 39.1589 29.4122L37.8121 30.5889C37.5415 30.8253 37.2503 31.0369 36.9419 31.2212L35.4066 32.1384C35.0981 32.3227 34.7738 32.4789 34.4374 32.6052L32.763 33.2336C32.4267 33.3598 32.0796 33.4556 31.7261 33.5197L29.9664 33.8391C29.6129 33.9032 29.2544 33.9355 28.8951 33.9355H27.1066C26.7474 33.9355 26.3888 33.9032 26.0353 33.8391L24.2756 33.5197C23.9221 33.4556 23.5751 33.3598 23.2387 33.2336L21.5643 32.6052C21.2279 32.4789 20.9036 32.3227 20.5951 32.1384L19.0599 31.2212C18.7514 31.0369 18.4602 30.8253 18.1896 30.5889L16.8428 29.4122C16.5722 29.1758 16.3235 28.9156 16.0994 28.6347L14.9844 27.2365C14.7604 26.9556 14.562 26.6551 14.3918 26.3387L13.5443 24.7638C13.3741 24.4475 13.2326 24.1164 13.1215 23.7747L12.5689 22.0738C12.4579 21.7321 12.3778 21.3812 12.3295 21.0251L12.0895 19.2529C12.0412 18.8968 12.0251 18.5372 12.0412 18.1783L12.1214 16.3917C12.1376 16.0327 12.1859 15.676 12.2658 15.3257L12.6638 13.5821C12.7437 13.2318 12.855 12.8895 12.9962 12.5591L13.6991 10.9146C13.8403 10.5842 14.0109 10.2672 14.2088 9.96734L15.1941 8.47476C15.392 8.17491 15.6165 7.89345 15.8647 7.63376L17.1007 6.34109C17.3489 6.0814 17.6201 5.84454 17.9107 5.63336L19.3576 4.58215C19.6483 4.37097 19.9573 4.18632 20.281 4.03044L21.8923 3.25446C22.216 3.09858 22.5531 2.97208 22.8994 2.8765L24.6234 2.40071C24.9697 2.30513 25.3239 2.24084 25.6818 2.20864L27.463 2.04832Z" fill="url(#paint0_linear_138_8406)"/>
<path fill-rule="evenodd" clip-rule="evenodd" d="M29.4243 18.4321C29.3447 18.438 28.9337 18.4626 28.0169 18.4626C27.2877 18.4626 26.77 18.4407 26.5883 18.4321C23.7703 18.3081 21.6669 17.8175 21.6669 17.2302C21.6669 16.6429 23.7703 16.153 26.5883 16.027V17.9435C26.7726 17.9568 27.3003 17.9879 28.0295 17.9879C28.9045 17.9879 29.3427 17.9514 29.4216 17.9442V16.0283C32.2337 16.1536 34.3325 16.6442 34.3325 17.2302C34.3325 17.8162 32.2343 18.3068 29.4216 18.4314L29.4243 18.4321ZM29.4243 15.8301V14.1152H33.3487V11.5H22.6639V14.1152H26.5877V15.8295C23.3984 15.976 21 16.6077 21 17.3648C21 18.1218 23.3984 18.7529 26.5877 18.9001V24.3956H29.4236V18.8981C32.6056 18.7516 35 18.1205 35 17.3641C35 16.6077 32.6076 15.9766 29.4236 15.8295L29.4243 15.8301Z" fill="white"/>
<defs>
<filter id="filter0_f_138_8406" x="10.0293" y="4.02417" width="35.9395" height="35.9275" filterUnits="userSpaceOnUse" color-interpolation-filters="sRGB">
<feFlood flood-opacity="0" result="BackgroundImageFix"/>
<feBlend mode="normal" in="SourceGraphic" in2="BackgroundImageFix" result="shape"/>
<feGaussianBlur stdDeviation="3" result="effect1_foregroundBlur_138_8406"/>
</filter>
<filter id="filter1_f_138_8406" x="0.03125" y="0.0241699" width="55.9375" height="55.9233" filterUnits="userSpaceOnUse" color-interpolation-filters="sRGB">
<feFlood flood-opacity="0" result="BackgroundImageFix"/>
<feBlend mode="normal" in="SourceGraphic" in2="BackgroundImageFix" result="shape"/>
<feGaussianBlur stdDeviation="7.5" result="effect1_foregroundBlur_138_8406"/>
</filter>
<linearGradient id="paint0_linear_138_8406" x1="28.0009" y1="2.02417" x2="28.0009" y2="33.9355" gradientUnits="userSpaceOnUse">
<stop stop-color="#3FA862"/>
<stop offset="1" stop-color="#348D52"/>
</linearGradient>
</defs>
</svg>
