<svg width="150" height="150" viewBox="0 0 150 150" fill="none" xmlns="http://www.w3.org/2000/svg">
<rect width="150" height="150" fill="url(#paint0_linear_190_10832)"/>
<path d="M103.57 64.0163C103.57 65.477 102.634 66.0965 101.299 65.4367C99.9641 64.7769 98.8157 63.9256 97.5817 63.1701C95.6223 61.9411 93.6479 60.7272 91.7087 59.463C90.0012 58.3549 89.981 57.5893 91.5979 56.4057C92.3484 55.8566 91.9404 55.2019 91.6835 54.7133C90.2329 51.943 88.5254 49.3641 85.8962 47.5257C82.3704 45.0627 78.4819 43.7228 74.2056 44.2618C69.9281 44.7182 65.9757 46.7573 63.1245 49.9786C59.4879 54.0736 57.4531 58.8435 57.997 64.3538C58.5612 70.0606 61.3919 74.4275 66.4539 77.3842C69.617 79.2176 73.0018 79.827 76.5528 79.8673C78.3006 79.8673 78.6129 80.2099 78.6078 81.9828C78.6078 83.922 78.5675 85.8612 78.5373 87.8054C78.5373 89.3165 77.9984 90.0669 76.5226 89.9964C74.0468 89.8824 71.5815 89.6014 69.1436 89.1553C67.4809 88.7888 65.8543 88.2747 64.283 87.619C60.78 86.2072 57.6411 84.0223 55.1008 81.2273C52.3073 78.2796 50.2078 74.7449 48.9559 70.8816C47.7382 67.2406 47.2788 63.389 47.606 59.5638C47.979 54.9597 49.5126 50.5252 52.0636 46.6744C54.15 43.468 56.8758 40.7269 60.0705 38.6225C63.2651 36.5182 66.8598 35.096 70.6294 34.4449C74.1316 33.7987 77.7274 33.8569 81.2068 34.6162C84.5594 35.3241 87.7493 36.655 90.6107 38.5399C93.5174 40.3548 96.0342 42.7296 98.0148 45.526C98.9881 46.9976 99.8777 48.5228 100.679 50.0945C101.012 50.7341 101.279 50.9507 102.029 50.7593C103.344 50.4219 103.842 50.8601 103.868 52.2704C103.913 54.2751 103.616 62.1124 103.57 64.0163Z" fill="white"/>
<path d="M47.4608 85.6043C47.5565 84.0933 48.5537 83.5896 49.7978 84.3955C53.1121 86.4774 56.4247 88.5576 59.7356 90.6361C60.7984 91.306 60.9595 92.4343 59.927 93.0941C59.0657 93.6431 59.3024 94.2022 59.5845 94.7764C60.8917 97.6562 62.8922 100.167 65.4071 102.085C68.4947 104.346 71.955 105.681 75.7528 105.525C82.341 105.258 87.2771 102.11 90.6417 96.4588C92.7975 92.8221 93.956 88.9538 93.3113 84.7229C92.5507 79.686 90.138 75.6565 85.8215 72.8258C82.666 70.7768 78.9531 69.7562 75.1937 69.9044C73.179 69.9397 72.7962 69.5619 72.8264 67.6026C72.8566 65.6433 72.8717 63.7191 72.912 61.78C72.8902 61.5034 72.9284 61.2255 73.0241 60.9651C73.1197 60.7047 73.2706 60.4681 73.4663 60.2715C73.6619 60.0749 73.8978 59.9228 74.1577 59.8259C74.4176 59.729 74.6954 59.6894 74.9721 59.7098C79.2362 59.6114 83.4693 60.4577 87.3678 62.188C91.5359 64.0558 95.1894 66.9057 98.0157 70.4937C99.8224 72.7757 101.243 75.3381 102.221 78.0793C103.816 82.3944 104.315 87.0379 103.672 91.5931C103.058 95.9351 101.441 100.074 98.9475 103.682C97.114 106.377 94.8046 108.715 92.1326 110.582C90.2058 111.86 88.1556 112.942 86.0129 113.811C81.2228 115.871 76.1406 116.027 71.1088 115.236C68.5904 114.833 66.1122 113.695 63.6895 112.718C60.2378 111.268 57.2177 108.954 54.9204 105.999C53.3136 103.984 52.0493 101.712 50.7095 99.5111C50.3519 98.9217 50.2059 98.5591 49.405 98.9318C47.9242 99.6017 47.0125 98.9319 47.0024 97.3352C46.9671 95.4363 47.3298 87.6191 47.4608 85.6043Z" fill="white"/>
<defs>
<linearGradient id="paint0_linear_190_10832" x1="75" y1="0" x2="75" y2="150" gradientUnits="userSpaceOnUse">
<stop stop-color="#00334B"/>
<stop offset="1" stop-color="#005E8C"/>
</linearGradient>
</defs>
</svg>
